<?xml version="1.0" encoding="UTF-8" standalone="no"?>
<!-- Created with Inkscape (http://www.inkscape.org/) -->

<svg
   xmlns:dc="http://purl.org/dc/elements/1.1/"
   xmlns:cc="http://creativecommons.org/ns#"
   xmlns:rdf="http://www.w3.org/1999/02/22-rdf-syntax-ns#"
   xmlns:svg="http://www.w3.org/2000/svg"
   xmlns="http://www.w3.org/2000/svg"
   xmlns:xlink="http://www.w3.org/1999/xlink"
   xmlns:sodipodi="http://sodipodi.sourceforge.net/DTD/sodipodi-0.dtd"
   xmlns:inkscape="http://www.inkscape.org/namespaces/inkscape"
   width="10"
   height="10"
   viewBox="0 0 10 10"
   id="svg4263"
   version="1.1"
   inkscape:version="0.91 r13725"
   sodipodi:docname="ballTexture.svg">
  <defs
     id="defs4265">
    <linearGradient
       inkscape:collect="always"
       id="linearGradient5713">
      <stop
         style="stop-color:#808080;stop-opacity:1"
         offset="0"
         id="stop5715" />
      <stop
         style="stop-color:#e5e5e5;stop-opacity:1"
         offset="1"
         id="stop5717" />
    </linearGradient>
    <linearGradient
       inkscape:collect="always"
       id="linearGradient5087">
      <stop
         style="stop-color:#000000;stop-opacity:0.25"
         offset="0"
         id="stop5089" />
      <stop
         style="stop-color:#000000;stop-opacity:0.5"
         offset="1"
         id="stop5091" />
    </linearGradient>
    <linearGradient
       inkscape:collect="always"
       xlink:href="#linearGradient5087"
       id="linearGradient5093"
       x1="1.4520943"
       y1="1044.0284"
       x2="9.5333147"
       y2="1051.8572"
       gradientUnits="userSpaceOnUse"
       gradientTransform="translate(0,6.01e-5)" />
    <linearGradient
       inkscape:collect="always"
       xlink:href="#linearGradient5713"
       id="linearGradient5719"
       x1="0.031567268"
       y1="1042.387"
       x2="10.038369"
       y2="1052.3622"
       gradientUnits="userSpaceOnUse" />
  </defs>
  <sodipodi:namedview
     id="base"
     pagecolor="#ffffff"
     bordercolor="#666666"
     borderopacity="1.0"
     inkscape:pageopacity="0.0"
     inkscape:pageshadow="2"
     inkscape:zoom="31.678384"
     inkscape:cx="1.1388563"
     inkscape:cy="6.4807691"
     inkscape:document-units="px"
     inkscape:current-layer="layer1"
     showgrid="false"
     units="px"
     inkscape:window-width="1920"
     inkscape:window-height="1017"
     inkscape:window-x="-8"
     inkscape:window-y="-8"
     inkscape:window-maximized="1" />
  <metadata
     id="metadata4268">
    <rdf:RDF>
      <cc:Work
         rdf:about="">
        <dc:format>image/svg+xml</dc:format>
        <dc:type
           rdf:resource="http://purl.org/dc/dcmitype/StillImage" />
        <dc:title />
      </cc:Work>
    </rdf:RDF>
  </metadata>
  <g
     inkscape:label="Layer 1"
     inkscape:groupmode="layer"
     id="layer1"
     transform="translate(0,-1042.3622)">
    <rect
       style="opacity:1;fill:url(#linearGradient5719);fill-opacity:1;stroke:none;stroke-width:10;stroke-linecap:round;stroke-linejoin:round;stroke-miterlimit:4;stroke-dasharray:none;stroke-dashoffset:0;stroke-opacity:1"
       id="rect5085"
       width="10"
       height="10"
       x="-2.7172851e-007"
       y="1042.3622" />
    <path
       style="opacity:1;fill:url(#linearGradient5093);fill-opacity:1;stroke:none;stroke-width:10;stroke-linecap:round;stroke-linejoin:round;stroke-miterlimit:4;stroke-dasharray:none;stroke-dashoffset:0;stroke-opacity:1"
       d="m 4.840726,1043.9544 c -0.26394,0.018 -0.530937,0.063 -0.791016,0.037 -0.232877,-0.066 -0.43254,0.056 -0.658203,0.1074 -0.179065,0.06 -0.347121,0.1118 -0.464844,0.2402 -0.09851,0.062 -0.120513,0.274 -0.22129,0.3809 -0.05316,0.1428 -0.291512,0.4266 -0.01271,0.4382 0.278675,0.02 0.500144,-0.2241 0.622475,-0.4558 0.121492,-0.4477 0.359152,0.1466 0.595347,-0.039 0.235065,-0.1985 0.510475,-0.3405 0.756408,-0.5018 0.04151,-0.041 0.41618,-0.2069 0.173828,-0.2071 z m 0.77539,0.5235 c -0.146787,0.024 -0.248594,0.06 -0.326171,0.1973 -0.19584,-0.085 -0.130824,0.1839 0.0044,0.2481 0.146416,0.1069 0.4591931,0.1415 0.4270106,-0.1394 0.015594,-0.1352 0.1300136,-0.3634 -0.1052836,-0.306 z m -2.644531,1.1133 c -0.252178,0.048 -0.212685,0.4063 -0.466956,0.4387 -0.146941,0.095 -0.637022,0.3907 -0.492028,0.5183 0.20985,-0.1152 0.44897,-0.04 0.683413,-0.1274 0.151748,-0.1807 0.503708,-0.3769 0.486509,-0.6265 -0.06075,-0.075 -0.09904,-0.2028 -0.210938,-0.2031 z m 1.361328,0.017 c -0.228675,0.041 -0.482211,0.01 -0.716797,0.01 -0.236427,0.127 0.0217,0.2631 0.181641,0.3652 0.314048,0.1342 0.606121,-0.1646 0.9375,-0.062 0.193376,-0.1105 -0.0673,-0.2807 -0.235831,-0.2714 -0.05507,-0.014 -0.112606,-0.021 -0.166513,-0.037 z m 4.3378909,0.1817 c -0.1182633,0.1791 -0.3990149,0.1442 -0.46875,0.3808 -0.2053348,0.1674 -0.1326381,0.6699 0.15625,0.4454 9.726e-4,-0.3148 0.3064004,-0.4668 0.3769531,-0.7676 0.026994,-0.078 -0.0099,-0.057 -0.064453,-0.059 z m -0.7714844,0.8281 c -0.1761213,0.044 -0.4007237,-0.067 -0.5214843,0.1192 -0.1253415,0.088 -0.5997324,0.2605 -0.2161363,0.3089 0.23146,-0.014 0.4276054,-0.1178 0.6419175,-0.1996 0.156931,-0.015 0.028499,-0.1875 0.1855469,-0.2187 0.036874,-0.012 -0.086251,-0.011 -0.089844,-0.01 z m 0.3242188,0.1426 c -0.074856,-0.011 -0.1103546,0.031 -0.1484375,0.072 0.063387,0.1327 0.1828446,0.031 0.1484375,-0.072 z m 0.4335937,0.1191 c -0.2648677,0.012 -0.3582764,0.3269 -0.3859537,0.5492 -0.090541,0.2416 -0.1898737,-0.1483 -0.2781088,-0.079 -0.1537698,0.1249 -0.2316367,0.3313 -0.4375,0.4024 -0.2713522,0.1254 -0.1514239,0.6225 -0.4921875,0.4004 0.040717,0.1718 0.2467888,0.3026 0.1607792,0.5147 -0.1397572,0.2689 0.3683621,0.4519 0.466174,0.2157 0.2116136,0.1695 0.4891204,-0.3129 0.1015624,-0.3242 -0.2127197,-0.1017 0.0855,-0.461 0.1816407,-0.5547 -0.036466,0.049 0.020137,0.23 0.085937,0.1543 -0.042256,-0.044 -0.13103,-0.1912 0.00586,-0.1758 0.1619817,-0.074 0.2870746,-0.2103 0.4394531,-0.3164 0.066943,-0.084 0.173791,-0.16 0.1580288,-0.2659 -0.014146,-0.1351 0.1450523,-0.4897 -0.00569,-0.5212 z m -1.1992187,0.1856 c -0.0094,0.086 -0.3689249,0.295 -0.1914063,0.2363 0.1127634,0.033 0.3143925,-0.111 0.2265625,-0.2187 -0.00217,-0.025 -0.021583,-0.016 -0.035156,-0.018 z m -0.2578125,0.2597 c -0.03571,-0.014 0.00921,0.037 0,0 z m 0.6367187,-0.2539 c -0.094759,0.01 -0.3186256,0.01 -0.1445312,0.1036 0.056176,0 0.3502142,0.01 0.2539062,-0.084 -0.037277,7e-4 -0.071113,-0.026 -0.109375,-0.02 z M 6.8348664,1047.7 c -0.2592958,-0.042 -0.203173,0.2618 -0.1308594,0.4024 0.1151205,0.01 0.2536673,-0.093 0.2623641,-0.215 0.1591694,0 0.057212,-0.1704 -0.064044,-0.179 -0.022808,0 -0.046401,0.017 -0.067461,-0.01 z m -5.3417964,0.4297 c -0.01105,0.1846 0.19933,0.2806 0.179687,0.4746 0.111233,0.2869 0.461107,0.4403 0.744141,0.5098 0.323651,-0.1909 0.06301,-0.4541 -0.216797,-0.4687 -0.198268,-0.1781 -0.414224,-0.4605 -0.707031,-0.5157 z m 6.6464839,0 c -0.063468,0.082 0.091499,0.1016 0.019531,0.168 -1.127e-4,0.071 0.022617,0.1359 0.042969,0.1914 0.043007,-0.2876 0.070523,0.093 0.2285156,0.1231 0.1256215,0.1467 0.6173782,0.057 0.4101563,0.3398 -0.028556,0.3226 0.4331496,0.4148 0.6035156,0.6465 0.386108,0.3915 0.02993,-0.2858 -0.01563,-0.4649 0.0016,-0.2008 -0.148497,-0.3271 -0.246094,-0.4863 -0.075415,-0.1322 -0.1755819,-0.2277 -0.2929685,-0.3047 -0.1578509,-0.065 -0.4539503,-0.079 -0.6328125,-0.1211 -0.02775,-0.021 -0.072423,-0.079 -0.1171875,-0.092 z m -0.140625,0.096 c -0.06208,0.01 -0.1095131,0.2337 -0.037109,0.1602 0.028096,-0.051 0.063787,-0.1285 0.037109,-0.1602 z m 0.2578125,0.014 c 0.00792,0.01 -0.01099,0.01 0,0 z m -5.3281254,0.119 c -0.09858,0.196 0.0932,0.4268 0.267579,0.5157 0.157713,0.1211 0.636089,0.096 0.378906,0.3828 -0.101954,0.3573 0.42272,0.4526 0.544922,0.7265 0.137344,0.1293 0.492481,0.5188 0.302734,0.074 -0.07515,-0.2517 -0.163454,-0.4943 -0.179687,-0.7539 -0.12095,-0.2012 -0.244193,-0.4116 -0.366252,-0.6198 -0.12106,-0.058 -0.159567,-0.2135 -0.305623,-0.1869 -0.202857,-0.066 -0.422686,-0.1332 -0.642579,-0.1387 z m 5.1074223,0.1543 c -0.091506,0.045 0.054292,0.1513 0.042969,0.061 -0.060286,0 0.030175,-0.081 -0.042969,-0.061 z m -2.3554688,0.2852 c -0.076856,0.1279 -0.2278485,0.2073 -0.2675785,0.3555 -0.182768,0.1939 0.107142,0.6205 0.197037,0.2795 -0.07865,-0.2161 0.167907,-0.4205 0.070542,-0.635 z m 1.2363281,0.3027 c -0.3992728,-0.033 -0.7815302,0.037 -0.9335937,0.4649 -0.1124643,0.032 -0.2901792,0.1191 -0.4107629,0.231 -0.09687,0.1369 0.3411597,0.335 0.078731,0.3471 -0.278137,0.035 -0.198849,0.4223 -0.333984,0.6113 -0.09272,0.2985 0.26018,-0.1851 0.3671872,-0.2129 0.1356331,-0.084 0.1741053,-0.2577 0.2871094,-0.3711 0.030426,-0.1056 0.059202,-0.1806 0.054687,-0.2519 0.2594183,-0.063 0.4120522,-0.2977 0.671875,-0.3789 0.1189598,-0.072 0.3865612,-0.2407 0.2699912,-0.3521 -0.023005,0.027 -0.010228,-0.144 -0.051241,-0.087 z m 1.1367188,0 c -0.2340412,0.1026 -0.098718,0.46 -0.1892008,0.6651 -0.094845,0.1973 0.1362164,0.6076 -0.1428304,0.6533 -0.360348,-0.1704 -0.5633197,0.2328 -0.6113282,0.5293 -0.1445741,0.3178 -0.3221728,0.6063 -0.4355468,0.9355 0.082581,0.1193 0.4828836,-0.3075 0.6684967,-0.4071 0.1793432,-0.1375 0.4193679,-0.1813 0.5610178,-0.3701 0.1271297,-0.208 0.3307214,-0.3903 0.4838148,-0.5884 0.021109,-0.1444 0.1483885,-0.2662 0.1267063,-0.3942 -0.065989,-0.2836 -0.016716,-0.5963 -0.1112065,-0.8848 -0.041819,-0.1455 -0.2774596,0.1045 -0.273751,-0.084 0.00483,-0.037 -0.067424,-0.017 -0.076172,-0.055 z m -5.4843754,0.2735 c -0.291278,0.1938 -0.167045,0.6381 0.04508,0.8761 -0.118251,0.2753 0.288989,0.4797 0.251799,0.1173 0.0035,-0.17 0.0024,-0.3265 -0.07495,-0.479 -0.04783,-0.1609 -0.01163,-0.496 -0.221922,-0.5144 z m 2.707032,0.2461 c -0.29037,-0.037 -0.381365,0.2643 -0.552735,0.4082 0.10003,0.1528 0.309115,-0.069 0.408203,-0.1407 0.06669,-0.072 0.298259,-0.1606 0.144532,-0.2675 z m 3.9023434,0.459 c -0.1436545,0.033 -0.1869252,0.2096 -0.1601562,0.3496 0.028837,0.1795 0.3942572,0.1048 0.4277342,0 -0.04193,-0.1376 -0.134128,-0.2316 -0.25,-0.2774 0.0047,-0.031 -0.01437,-0.049 -0.01758,-0.076 z m -4.3320314,0.4902 c -0.221035,0.01 -0.201353,0.2056 -0.07031,0.334 0.07478,-0.01 0.137553,-0.1112 0.154297,-0.166 0.0029,-0.1348 0.123958,-0.1175 -0.04977,-0.1591 l -0.0264,-0.01 -0.0078,0 z m -0.960937,0.072 c -0.158445,0.03 -0.24715,0.2178 -0.22461,0.3822 -0.0057,0.2638 0.375328,0.1462 0.511048,0.1239 0.01228,-0.1182 -0.07099,-0.2741 -0.159485,-0.3362 -0.121575,-0.018 -0.105287,-0.088 -0.126953,-0.1699 z m 1.8203122,0.5136 c -0.1501082,0.058 -0.3502072,0.033 -0.4481232,0.1797 0.03193,0.1441 0.07095,0.6509 0.307497,0.5509 0.1059456,-0.1468 0.2905021,-0.2193 0.2597668,-0.4317 0.019515,-0.07 0.2455633,-0.1684 0.055519,-0.1849 -0.066265,-0.03 -0.1051304,-0.093 -0.1746593,-0.114 z M 4.403226,1051.46 c -0.04967,0.01 -0.191507,-0.014 -0.101563,0.059 0.06927,0.05 0.12222,0.01 0.144532,0.1055 0.03946,0.019 0.143686,0.1082 0.15039,0.078 -0.06321,-0.088 -0.09772,-0.2001 -0.193359,-0.2422 z m -0.367188,0.053 c 0.04354,0.057 0.1087,0.1373 0.199219,0.1133 0.03715,-0.1044 -0.154561,-0.027 -0.1875,-0.1133 l -0.0078,0 -0.0039,0 z m 0.220703,0.1426 c -0.03354,0.056 0.104671,0.2378 0.107422,0.1524 -0.02425,-0.06 -0.06021,-0.1328 -0.107422,-0.1524 z m 0.275391,0.1407 c -0.07734,0.071 0.07815,0.127 0.06836,0.045 -0.0086,-0.037 -0.06467,-0.01 -0.06836,-0.045 z"
       id="path5057"
       inkscape:connector-curvature="0" />
    <g
       id="g5703"
       transform="translate(11.016976,-10.638169)">
      <rect
         y="1042.3622"
         x="0"
         height="10"
         width="10"
         id="rect5085-4"
         style="opacity:1;fill:#008000;fill-opacity:1;stroke:none;stroke-width:10;stroke-linecap:round;stroke-linejoin:round;stroke-miterlimit:4;stroke-dasharray:none;stroke-dashoffset:0;stroke-opacity:1" />
      <path
         inkscape:connector-curvature="0"
         id="path5661"
         d="m 5.6925788,1041.6851 c -0.00744,0.01 0.00471,0.021 0,0.031 -0.00665,0.013 -0.026544,0.018 -0.03125,0.033 -0.00665,0.02 1e-7,0.041 0,0.062 l 0,0.062 0,0.1269 c 0,0.01 -0.00744,0.023 0,0.031 0.00744,0.01 0.020728,0 0.03125,0 l 0.03125,0 0.064453,0 0.03125,0 c 0.01331,-0.01 0.022322,-0.019 0.03125,-0.031 0.022763,-0.03 0.041456,-0.064 0.0625,-0.096 0.083665,0.01 0.1702417,-0.01 0.2539062,0 0.053326,0.01 0.1053493,0.016 0.15625,0.033 0.3704434,0.1234 0.4441736,0.1575 0.7578125,0.3789 0.067141,0.047 0.1210729,0.1126 0.1894531,0.1582 0.09014,0.06 0.1922598,0.1006 0.2851563,0.1563 0.115598,0.069 0.329137,0.2192 0.4101563,0.3164 0.045189,0.054 0.048561,0.1352 0.09375,0.1894 0.062106,0.075 0.1521053,0.1209 0.2207031,0.1895 0.047642,0.048 0.082585,0.1075 0.1269531,0.1582 0.029397,0.034 0.075738,0.054 0.095703,0.094 0.014117,0.028 -0.015662,0.068 0,0.096 0.029532,0.052 0.085455,0.083 0.125,0.127 0.060847,0.069 0.2520166,0.3182 0.2851563,0.3789 0.020775,0.038 0.019332,0.084 0.03125,0.125 0.1065937,0.3731 -0.07992,-0.3557 0.0625,0.2852 0.00722,0.033 0.027939,0.061 0.03125,0.094 0.00733,0.073 0,0.149 0,0.2227 0,0.032 -0.00392,0.062 0,0.094 0.00644,0.051 0.047073,0.2273 0.064453,0.2852 0.01912,0.064 0.032741,0.1299 0.0625,0.1894 0.02353,0.047 0.063171,0.082 0.09375,0.125 0.022051,0.031 0.040174,0.066 0.064454,0.096 0.02858,0.034 0.06586,0.061 0.09375,0.096 0.0147,0.018 0.01461,0.045 0.03125,0.062 0.30599,0.306 0.020811,-0.01 0.285156,0.1895 0.01684,0.013 -0.01488,0.048 0,0.062 0.0074,0.01 0.02381,-0.01 0.03125,0 0.0074,0.01 0,0.02 0,0.031 l 0,0.031 c 0.0057,-0.023 0.02321,-0.041 0.03125,-0.062 0.03411,-0.094 0.06413,-0.1885 0.0957,-0.2832 0.05261,-0.1052 0.1155633,-0.2068 0.1582033,-0.3164 0.03145,-0.081 0.04015,-0.1681 0.0625,-0.252 0.01974,-0.074 0.05355,-0.1447 0.0625,-0.2207 0.01229,-0.1045 0,-0.2112 0,-0.3164 l 0,-0.1582 0,-0.1894 c 0,-0.053 0.0065,-0.106 0,-0.1582 -0.0041,-0.033 -0.02472,-0.061 -0.03125,-0.094 -0.0251,-0.1255 -0.04145,-0.2526 -0.0625,-0.3789 -0.02781,-0.1669 -0.03581,-0.2852 -0.1269533,-0.4414 -0.02999,-0.052 -0.09194,-0.079 -0.126953,-0.127 -0.1557511,-0.2142 -0.081998,-0.2312 -0.2832031,-0.4101 -0.03517,-0.031 -0.089304,-0.034 -0.126953,-0.062 -0.04762,-0.036 -0.07478,-0.095 -0.125,-0.127 -0.06761,-0.043 -0.148253,-0.066 -0.222657,-0.096 -0.083474,-0.033 -0.1644939,-0.073 -0.2519528,-0.094 -0.6534399,-0.1556 -0.1746447,-7e-4 -0.6621093,-0.096 -0.1276276,-0.025 -0.252211,-0.066 -0.3789063,-0.096 -0.052228,-0.012 -0.10574,-0.019 -0.1582031,-0.031 -0.094859,-0.02 -0.1886755,-0.04 -0.2832031,-0.062 -0.042274,-0.01 -0.084863,-0.022 -0.1269532,-0.033 l -0.2519531,-0.062 c -0.04209,-0.011 -0.085398,-0.018 -0.1269531,-0.031 -0.063743,-0.019 -0.1257101,-0.045 -0.1894531,-0.064 -0.041555,-0.013 -0.085794,-0.017 -0.1269531,-0.031 -0.053757,-0.018 -0.1012769,-0.049 -0.15625,-0.062 -0.030625,-0.01 -0.06535,0.01 -0.095703,0 -0.045247,-0.013 -0.084863,-0.042 -0.1269531,-0.062 -0.021045,-0.011 -0.039876,-0.026 -0.0625,-0.033 -0.05159,-0.015 -0.1049634,-0.024 -0.1582031,-0.031 l -0.09375,0 -0.03125,0 -0.064453,0 c -0.010522,0 -0.02381,-0.01 -0.03125,0 z m -2.6835937,1.5762 c -0.00744,0.01 0.00998,0.031 0,0.031 -0.029948,0.01 -0.062339,0 -0.09375,0 -0.074036,0.01 -0.1485201,0.013 -0.2207031,0.031 -0.054973,0.014 -0.1039281,0.047 -0.1582032,0.062 -0.0031,0 -0.3140762,0.064 -0.3164062,0.064 -0.2046212,0.069 -0.04357,0.064 -0.2519531,0.094 -0.2239586,0.032 0.03637,-0.042 -0.1894531,0.033 -0.031138,0.01 -0.065078,-0.01 -0.095703,0 -0.014436,0 -0.016813,0.031 -0.03125,0.031 l -0.2207031,0 c -0.045653,0.011 -0.081747,0.043 -0.125,0.062 -0.030584,0.014 -0.064808,0.021 -0.095703,0.033 -0.021845,0.01 -0.040654,0.021 -0.0625,0.031 -0.030895,0.013 -0.066812,0.015 -0.095703,0.031 -0.04568,0.026 -0.080385,0.068 -0.125,0.096 -0.039905,0.025 -0.087799,0.037 -0.1269531,0.062 -0.0798784,0.053 -0.0818101,0.1225 -0.15820314,0.1895 -0.0461749,0.041 -0.1071521,0.062 -0.1582031,0.096 -0.0437761,0.029 -0.083917,0.063 -0.125,0.096 -0.01162,0.01 -0.0226812,0.02 -0.0332031,0.031 0,0.01 0.00744,0.021 0,0.031 -0.00744,0.01 -0.0238101,-0.01 -0.03125,0 -0.00744,0.01 0.00744,0.021 0,0.031 -0.00744,0.01 -0.0265401,-0.01 -0.03125,0 -0.0262311,0.053 -0.0545701,0.2844 -0.0625,0.3164 -0.0266451,0.1066 -0.0663002,0.2105 -0.0957032,0.3164 -0.0637479,0.2295 -0.0463353,0.2369 -0.12499998,0.4414 -0.0287673,0.075 -0.0762672,0.1427 -0.09570312,0.2207 -0.0231103,0.092 -0.0155853,0.1892 -0.03125,0.2832 -0.0448772,0.2689 -0.03125,-0.1091 -0.03125,0.2207 l 0,0 c 0.0210448,-0.042 0.0450232,-0.083 0.0625,-0.127 0.003908,-0.01 0,-0.021 0,-0.031 l 0,-0.064 c 0,-0.011 -0.003327,-0.021 0,-0.031 0.007441,-0.022 0.025543,-0.039 0.03125,-0.062 0.005104,-0.02 -0.005104,-0.044 0,-0.064 0.005707,-0.023 0.0226807,-0.042 0.0332031,-0.062 l 0.03125,-0.062 c 0.0105225,-0.021 0.0165517,-0.044 0.03125,-0.062 0.0278882,-0.035 0.065862,-0.061 0.09375,-0.096 0.014698,-0.018 0.0201522,-0.043 0.0332032,-0.062 0.008254,-0.013 0.020728,-0.022 0.03125,-0.033 l 0.0625,-0.062 c 0.1732432,-0.1734 0.0263562,-0.014 0.1582031,-0.1894 0.008928,-0.012 0.02764,-0.017 0.03125,-0.031 0.00766,-0.031 -0.00867,-0.066 0,-0.096 0.027255,-0.095 0.0803221,-0.1387 0.1269531,-0.2207 0.0762503,-0.1335 0.0706493,-0.1857 0.1894531,-0.3164 0.10979394,-0.1208 0.19927984,-0.1529 0.31445314,-0.2519 0.033896,-0.029 0.055062,-0.077 0.095703,-0.096 0.078993,-0.036 0.1691331,-0.036 0.2519531,-0.062 0.085811,-0.027 0.1635001,-0.078 0.2519531,-0.094 0.145307,-0.022 0.2964817,-0.018 0.4433594,-0.033 0.053359,-0.01 0.102754,-0.031 0.15625,-0.031 0.083932,-0.01 0.1697273,0 0.2539062,0 l 0.1582032,0 0.0625,0 c 0.031567,0 0.063125,0.01 0.09375,0 0.014436,0 0.020728,-0.023 0.03125,-0.033 0.021045,-0.021 0.040643,-0.044 0.064453,-0.062 0.179509,-0.135 -0.068303,0.098 0.125,-0.096 0.010522,-0.011 0.026553,-0.018 0.033203,-0.031 0.00471,-0.01 0,-0.02 0,-0.031 l 0,-0.096 0,-0.062 c 0,-0.032 0.00519,-0.065 0,-0.096 -0.00547,-0.033 -0.025133,-0.062 -0.033203,-0.094 -0.00255,-0.011 0,-0.022 0,-0.033 l 0,-0.031 c 0,-0.011 0.00744,-0.021 0,-0.031 -0.00744,-0.01 -0.02381,-0.01 -0.03125,0 z m 1.8007813,0.4121 c -0.1405788,0 -0.1013719,0 -0.2851563,0.033 -0.09056,0.018 -0.1533161,0.027 -0.2207031,0.094 -0.037203,0.037 -0.064136,0.085 -0.095703,0.127 0.04209,-0.011 0.08441,-0.023 0.1269532,-0.033 l 0.0625,0 c 0.01331,-0.01 0.019893,-0.021 0.033203,-0.031 0.00941,0 0.02381,0.01 0.03125,0 0.00744,-0.01 -0.00744,-0.021 0,-0.031 0.00744,-0.01 0.020728,0 0.03125,0 l 0.03125,0 0.2519531,0 0.033203,0 c 0.021045,0 0.042535,-0.01 0.0625,0 0.014117,0.01 0.01794,0.021 0.03125,0.031 l 0.03125,0 c 0.01331,0.01 0.01794,0.021 0.03125,0.031 l 0.033203,0 0.09375,0 0.1582031,0 0.03125,0 0.03125,0 c 0.01331,0.01 0.01794,0.023 0.03125,0.033 0.018823,0.01 0.04563,-0.01 0.064453,0 0.01331,0.01 0.020728,0.02 0.03125,0.031 0.031568,0.032 0.062183,0.064 0.09375,0.096 0.021045,0.021 0.041213,0.043 0.064453,0.062 0.029626,0.024 0.066923,0.035 0.09375,0.062 0.016637,0.017 0.019144,0.044 0.03125,0.064 0.019519,0.033 0.04169,0.064 0.064453,0.094 0.072522,0.097 -0.021143,-0.051 0.09375,0.064 0.016637,0.017 0.018199,0.043 0.03125,0.062 0.022842,0.035 0.1105111,0.084 0.1269531,0.094 0.1379133,0.083 -0.022483,-0.026 0.1582031,0.064 0.01331,0.01 0.01794,0.021 0.03125,0.031 0.029762,0.015 0.063166,0.018 0.09375,0.031 0.132453,0.057 0.1504578,0.083 0.2851563,0.1582 0.041136,0.023 0.084648,0.041 0.125,0.064 0.1010728,0.061 0.2446272,0.1494 0.3164062,0.2519 0.040479,0.058 0.06068,0.1285 0.095703,0.1895 0.00738,0.013 0.02654,0.017 0.03125,0.031 0.00665,0.02 0,0.042 0,0.062 l 0,0.127 c 10e-8,0.3154 0.00925,0.066 -0.03125,0.4101 -0.014636,0.1244 -0.029604,0.3665 -0.064453,0.5059 -0.016141,0.065 -0.024336,0.1344 -0.0625,0.1894 -0.038638,0.055 -0.1060571,0.082 -0.1582031,0.125 -0.063606,0.052 -0.1210731,0.1122 -0.1894531,0.1582 -0.027686,0.019 -0.066673,0.014 -0.09375,0.033 -0.048436,0.034 -0.084863,0.083 -0.1269531,0.125 -0.021045,0.021 -0.045991,0.039 -0.0625,0.064 -0.00584,0.01 0,0.02 0,0.031 0,0.042 -0.00595,0.085 0,0.1269 0.00471,0.033 0.020727,0.062 0.03125,0.094 0.010522,0.032 0.018142,0.065 0.03125,0.096 0.00516,0.012 0.098132,0.2067 0.1269531,0.2207 0.057248,0.032 0.1257641,0.021 0.1894531,0.031 l 0.125,0 0.1582031,0 0.2207031,0 c 0.052612,0 0.1063072,0.01 0.1582032,0 0.014678,0 0.01794,-0.021 0.03125,-0.031 l 0.03125,0 c 0.054878,-0.028 0.1049311,-0.065 0.1582031,-0.096 0.020428,-0.012 0.04563,-0.017 0.064453,-0.031 0.054067,-0.041 0.091113,-0.1022 0.125,-0.1582 0.012105,-0.02 0.020728,-0.042 0.03125,-0.062 0.021045,-0.042 0.043408,-0.085 0.064453,-0.1269 0.02806,-0.056 0.049497,-0.093 0.0625,-0.1582 0.00413,-0.02 -0.00605,-0.043 0,-0.062 0.025834,-0.086 0.062183,-0.168 0.09375,-0.252 0.021045,-0.032 0.052456,-0.06 0.064453,-0.096 0.02024,-0.061 0.015726,-0.1275 0.03125,-0.1895 0.00571,-0.023 0.02381,-0.041 0.03125,-0.062 0.00333,-0.01 0,-0.021 0,-0.031 l 0,-0.064 0,-0.094 0,-0.096 c 0,-0.042 0.00825,-0.086 0,-0.127 -0.00292,-0.015 -0.02654,-0.017 -0.03125,-0.031 -0.00665,-0.02 0,-0.041 0,-0.062 0,-0.032 0.00446,-0.065 0,-0.096 -0.00614,-0.043 -0.02274,-0.084 -0.03125,-0.127 -0.00206,-0.011 0,-0.02 0,-0.031 l 0,-0.127 0,-0.125 c 0,-0.053 0.011413,-0.1072 0,-0.1582 -0.010209,-0.046 -0.049572,-0.082 -0.064453,-0.1269 -0.02744,-0.082 -0.041455,-0.168 -0.0625,-0.252 -0.021239,-0.085 -0.034795,-0.1809 -0.09375,-0.2519 -0.024288,-0.029 -0.061256,-0.049 -0.095703,-0.064 -0.102899,-0.047 -0.2142934,-0.072 -0.3144531,-0.125 -0.079998,-0.042 -0.1473413,-0.1082 -0.2226563,-0.1582 -0.2043678,-0.1364 -0.1786769,-0.1214 -0.3144531,-0.1894 -0.021045,-0.011 -0.042131,-0.021 -0.064453,-0.031 -0.041159,-0.014 -0.082648,-0.023 -0.125,-0.033 -0.2185323,-0.048 -0.1077937,-0.017 -0.3476562,-0.062 -0.1581193,-0.03 -0.3148199,-0.064 -0.4726563,-0.096 -0.2104484,-0.042 -0.4229603,-0.08 -0.6328125,-0.125 -0.071565,-0.016 -0.3113253,-0.085 -0.4101562,-0.096 l -0.125,0 z m -2.2734376,1.5469 c 0.1838562,0.041 0.2944997,0.076 0.4726563,0.1269 l 0.095703,0.1563 c 0.010522,0.011 0.020728,0.02 0.03125,0.031 0.010522,0.011 0.01794,0.023 0.03125,0.033 0.00941,0 0.02381,-0.01 0.03125,0 0.016637,0.017 0.02381,0.041 0.03125,0.062 0.00333,0.01 -0.00744,0.021 0,0.031 0.00744,0.01 0.025763,-0.01 0.033203,0 0.014881,0.015 -0.014881,0.049 0,0.064 0.00744,0.01 0.02381,-0.01 0.03125,0 0.014881,0.015 -0.014881,0.047 0,0.062 0.014881,0.015 0.047619,-0.015 0.0625,0 0.00744,0.01 -0.00744,0.021 0,0.031 0.00744,0.01 0.02381,-0.01 0.03125,0 0.00744,0.01 -0.00744,0.023 0,0.033 0.00744,0.01 0.02127,0 0.03125,0 0.2286551,0.076 -0.048768,-0.01 0.095703,0.062 0.00941,0 0.02381,-0.01 0.03125,0 0.016637,0.017 0.012427,0.048 0.03125,0.062 0.1553763,0.117 0.04252,-0.059 0.1582031,0.096 0.041373,0.055 0.030668,0.094 0.0625,0.1582 0.0401,0.081 0.039047,-0.033 0.064453,0.094 0.04768,0.2381 -0.1111364,-0.097 0.0625,0.2852 0.025389,0.056 0.068264,0.1032 0.095703,0.1582 0.020942,0.042 0.068117,0.2109 0.125,0.2519 0.04611,0.033 0.1055902,0.042 0.1582032,0.062 0.021044,0.021 0.038691,0.044 0.0625,0.062 0.018823,0.015 0.041627,0.023 0.064453,0.033 0.052122,0.013 0.2071001,-0.033 0.2207031,-0.033 0.062973,-0.012 0.1281471,-0.013 0.1894532,-0.031 0.085421,-0.026 0.1863191,-0.1032 0.2519531,-0.1582 0.022864,-0.019 0.047188,-0.036 0.0625,-0.062 0.022997,-0.038 0.042833,-0.1102 0.033203,-0.1582 -0.020939,-0.1048 -0.030781,-0.074 -0.064453,-0.1582 -0.03989,-0.099 -0.016348,-0.1025 -0.09375,-0.1895 -0.059318,-0.067 -0.1293931,-0.1234 -0.1894531,-0.1894 -0.045322,-0.05 -0.081631,-0.1063 -0.1269532,-0.1563 -0.06006,-0.066 -0.1263181,-0.1264 -0.1894531,-0.1894 -0.031568,-0.032 -0.062183,-0.064 -0.09375,-0.096 -0.04209,-0.042 -0.079334,-0.091 -0.1269531,-0.127 -0.079415,-0.06 -0.1682041,-0.1032 -0.2519532,-0.1562 -0.032008,-0.02 -0.066078,-0.04 -0.095703,-0.064 -0.023241,-0.018 -0.041455,-0.042 -0.0625,-0.062 -0.010522,-0.011 -0.016942,-0.031 -0.03125,-0.031 -0.0708,-0.02 -0.3954234,-0.054 -0.4433593,-0.064 -0.084179,-0.01 -0.1674122,-0.021 -0.2519532,-0.031 l -0.1269531,0 -0.4101563,0 -0.09375,0 z m 0.4101563,1.7656 c -0.04209,0.042 0.052929,0.033 -0.03125,0.033 -0.1788812,0 -0.01184,-0.022 -0.064453,0.031 -0.065314,0.065 0.00318,-0.1007 -0.0625,0.031 -0.00471,0.01 0,0.022 0,0.033 l 0,0.031 c 0,0.011 0.00744,0.023 0,0.031 -0.00744,0.01 -0.02381,-0.01 -0.03125,0 -0.014881,0.015 0.014881,0.049 0,0.064 -0.00735,0.01 -0.049332,-0.01 -0.0625,0 -0.057481,0.029 -0.018188,0.024 -0.03125,0.062 -0.00744,0.022 -0.019086,0.043 -0.033203,0.062 -0.017857,0.024 -0.041455,0.042 -0.0625,0.062 -0.010522,0.011 -0.024595,0.019 -0.03125,0.033 -0.00471,0.01 0,0.02 0,0.031 l 0,0.033 0,0.125 c 0,0.011 -0.00744,0.025 0,0.033 0.00744,0.01 0.02381,-0.01 0.03125,0 0.00744,0.01 -0.00744,0.023 0,0.031 0.00744,0.01 0.021042,0 0.03125,0 0.021784,0.01 0.043299,0.014 0.064453,0.021 l 0,-0.023 0,-0.1562 c 0,-0.01 -0.00744,-0.024 0,-0.031 0.016637,-0.017 0.039876,-0.026 0.0625,-0.033 0.05159,-0.015 0.106151,-0.018 0.1582031,-0.031 0.032281,-0.01 0.061121,-0.024 0.09375,-0.031 l 0.0625,0 0.1582031,0 c 0.010522,0 0.02381,0.01 0.03125,0 0.00744,-0.01 -0.00744,-0.025 0,-0.033 0.00744,-0.01 0.022681,0 0.033203,0 l 0.0625,0 0.0625,0 c 0.010522,0 0.02381,-0.01 0.03125,0 0.00744,0.01 -0.00744,0.025 0,0.033 0.00744,0.01 0.025763,0.01 0.033203,0 0.00744,-0.01 0,-0.022 0,-0.033 l 0,-0.031 0,-0.127 0,-0.031 c 0,-0.011 0.00333,-0.023 0,-0.033 -0.00744,-0.022 -0.027497,-0.039 -0.033203,-0.062 -0.0051,-0.02 0.00666,-0.042 0,-0.062 -0.020939,-0.063 -0.028829,-0.014 -0.0625,-0.031 -0.01331,-0.01 -0.016814,-0.029 -0.03125,-0.033 -0.030625,-0.01 -0.064135,0 -0.095703,0 l -0.2207031,0 -0.03125,0 c -0.010522,0 -0.02381,-0.01 -0.03125,0 z m -0.2832031,0.7519 0,0.01 c 0,0.021 -0.00665,0.044 0,0.064 0.00471,0.015 0.018868,0.021 0.03125,0.031 0.073684,0.049 0.08345,0.055 0.09375,0.057 -0.00105,-0.01 0,-0.016 0,-0.023 l 0,-0.033 c 0,-0.011 0.00744,-0.021 0,-0.031 -0.052612,-0.052 -0.03125,0.1164 -0.03125,-0.062 -0.018823,-0.01 -0.041864,0 -0.0625,0 -0.01061,0 -0.021057,-0.01 -0.03125,-0.01 z m 0.125,0.1602 c 3.487e-4,0 -0.00186,0.01 0,0.01 0.00279,0 0.0073,0 0.011719,0 -0.00236,0 -0.010395,-0.01 -0.011719,-0.01 z m 0.011719,0.01 c 0.00382,0 0.011365,0.01 0.019531,0.012 7.846e-4,0 0.00263,-0.01 0,-0.012 -0.00465,-0.01 -0.012172,0 -0.019531,0 z m 0.019531,0.012 c -0.00144,0.01 -0.00378,0.016 0,0.022 0.016509,0.025 0.045861,0.039 0.064453,0.062 0.0237,0.03 0.033695,0.071 0.0625,0.096 0.045395,0.039 0.302366,0.1733 0.3476563,0.1895 0.081715,0.029 0.1696357,0.036 0.2519531,0.062 0.00705,0 0.053438,0.059 0.0625,0.062 0.029762,0.015 0.064808,0.018 0.095703,0.031 0.021846,0.01 0.040178,0.025 0.0625,0.033 0.041159,0.014 0.084158,0.023 0.1269531,0.031 l 0.0625,0 0.095703,0 0.0625,0 0.03125,0 c 0.042543,-0.01 0.084863,-0.02 0.1269532,-0.031 l 0,0 c -0.021202,0.01 -0.1438018,0.048 -0.1894532,0.033 -0.5597542,-0.1866 -0.084325,-0.056 -0.5683593,-0.2539 -0.1447806,-0.059 -0.2956156,-0.1015 -0.4414063,-0.1582 -0.043858,-0.017 -0.088661,-0.035 -0.1269531,-0.062 -0.036327,-0.026 -0.061407,-0.065 -0.095703,-0.094 -0.031478,-0.026 -0.018038,-0.01 -0.03125,-0.02 z m -1.703125,-0.2031 c -0.00744,0.01 0.00744,0.024 0,0.031 -0.00744,0.01 -0.028497,-0.01 -0.033203,0 -0.0047,0.01 0.00453,0.1133 0,0.1269 -0.00471,0.014 -0.028332,0.016 -0.03125,0.031 -0.00825,0.041 10e-8,0.085 0,0.1269 0,0.011 -0.00206,0.02 0,0.031 0.00851,0.043 0.037386,0.084 0.03125,0.1269 -0.50797774,0.5805 -0.06291,0.1363 -0.2832031,0.2832 -0.012382,0.01 -0.026545,0.018 -0.03125,0.033 -0.00665,0.02 0,0.042 0,0.062 l 0,0.062 0,0.1895 c 0,0.063 -0.00783,0.1268 0,0.1894 0.00292,0.023 0.024786,0.041 0.03125,0.062 0.032716,0.1145 0.041987,0.2661 0.0625,0.3789 0.022311,0.1227 0.095536,0.316 0.1269531,0.4102 0.031567,0.095 0.056676,0.1924 0.09375,0.2851 0.066866,0.1671 0.2101303,0.38 0.3164063,0.504 0.043848,0.051 0.1074972,0.083 0.1582031,0.1269 0.033597,0.029 0.062183,0.064 0.09375,0.096 0.021045,0.021 0.040644,0.044 0.064453,0.062 0.018823,0.014 0.041455,0.02 0.0625,0.031 0.021045,0.011 0.045862,0.016 0.0625,0.033 0.1605099,0.1605 -0.2697083,-0.058 0.1894531,0.1894 0.079157,0.043 0.1686162,0.065 0.2539062,0.094 0.2656293,0.088 0.1434504,0.038 0.3457031,0.096 0.085445,-0.054 0.08231,0.047 0.1269532,0.062 0.050901,0.017 0.105279,0.024 0.1582031,0.033 l 0.03125,0 0.03125,0 c 0.010522,0 0.02381,-0.01 0.03125,0 0.00744,0.01 -0.00998,0.027 0,0.031 0.029947,0.01 0.064749,-0.01 0.095703,0 0.023072,0 0.039207,0.027 0.0625,0.031 0.052083,0.01 0.1055911,0 0.1582032,0 0.010522,0 0.02381,-0.01 0.03125,0 0.00744,0.01 -0.00744,0.025 0,0.033 0.00744,0.01 0.021839,0 0.03125,0 0.01331,0.01 0.01794,0.024 0.03125,0.031 0.1037615,0.052 0.2000731,0.034 0.3164062,0.062 0.054973,0.014 0.1026385,0.053 0.1582031,0.064 0.05159,0.01 0.105591,0 0.1582031,0 l 0.1894532,0 0.03125,0 0.0625,0 c 0.032629,-0.01 0.063421,-0.025 0.095703,-0.033 l 0.03125,0 0.09375,0 0.064453,0 c 0.042795,-0.01 0.08195,-0.025 0.125,-0.031 0.041765,-0.01 0.084863,0 0.1269532,0 0.021045,0 0.042536,0.01 0.0625,0 0.014117,0 0.01794,-0.024 0.03125,-0.031 l 0.033203,0 0.0625,0 0.1269531,0 0.2519531,0 0.09375,0 c 0.021045,0 0.044036,-0.01 0.064453,0 0.022826,0.01 0.040178,0.023 0.0625,0.031 l 0.03125,0 c 0.01331,0.01 0.016369,0.031 0.03125,0.031 0.021045,0 -0.014881,-0.047 0,-0.062 0.00744,-0.01 0.020728,0 0.03125,0 0,-0.021 -0.00941,-0.043 0,-0.062 0.00471,-0.01 0.025763,0.01 0.033203,0 0.00744,-0.01 -0.00584,-0.024 0,-0.033 0.016509,-0.025 0.044642,-0.038 0.0625,-0.062 0.036273,-0.048 0.03125,-0.051 0.03125,-0.096 0,-0.01 0.00941,-0.026 0,-0.031 -0.018823,-0.01 -0.041456,0 -0.0625,0 -0.021045,0 -0.044036,0.01 -0.064453,0 -0.022826,-0.01 -0.039052,-0.029 -0.0625,-0.031 -0.1048606,-0.01 -0.211182,0 -0.3164062,0 -0.031567,0 -0.062934,-0.01 -0.09375,0 -0.3290264,0.073 -0.069928,0.062 -0.2832031,0.062 l -0.4746094,0 -0.1894531,0 -0.0625,0 c -0.151295,-0.025 -0.1261503,-0.043 -0.2851563,-0.096 -0.041159,-0.014 -0.085123,-0.013 -0.125,-0.031 -0.034872,-0.015 -0.064136,-0.042 -0.095703,-0.062 -0.063135,-0.042 -0.1239111,-0.089 -0.1894531,-0.1269 -0.060971,-0.036 -0.1293376,-0.059 -0.1894531,-0.096 -0.07709,-0.047 -0.1425163,-0.1107 -0.2207032,-0.1563 -0.048946,-0.029 -0.105591,-0.043 -0.1582031,-0.064 -0.063135,-0.042 -0.1251085,-0.085 -0.1894531,-0.125 -0.019953,-0.013 -0.045862,-0.016 -0.0625,-0.033 -0.016637,-0.017 -0.017133,-0.043 -0.03125,-0.062 -0.017857,-0.024 -0.041455,-0.042 -0.0625,-0.062 -0.021045,-0.021 -0.040643,-0.045 -0.064453,-0.062 -0.018823,-0.014 -0.049448,-0.013 -0.0625,-0.033 -0.011674,-0.017 0,-0.042 0,-0.062 l 0,-0.127 c 0,-0.042 0.010208,-0.084 0,-0.125 -0.00255,-0.01 -0.02381,0.01 -0.03125,0 -0.00744,-0.01 0,-0.022 0,-0.033 l 0,-0.2207 0,-0.031 c 0,-0.021 -0.0051,-0.044 0,-0.064 0.00571,-0.023 0.026636,-0.04 0.03125,-0.062 0.00619,-0.031 0,-0.062 0,-0.094 l 0,-0.1269 0,-0.096 c 0,-0.011 0.00333,-0.021 0,-0.031 -0.00744,-0.022 -0.019145,-0.043 -0.03125,-0.062 -0.039038,-0.065 -0.089307,-0.1235 -0.1269531,-0.1894 -0.023347,-0.041 -0.037559,-0.087 -0.0625,-0.127 -1.201e-4,-2e-4 -0.1204687,-0.144 -0.1269531,-0.1894 -0.00744,-0.052 0,-0.1056 0,-0.1582 l 0,-0.1895 0,-0.062 c 0,-0.021 0.0051,-0.043 0,-0.062 -0.00571,-0.023 -0.022512,-0.042 -0.03125,-0.064 -0.04209,-0.1052 -0.023852,-0.1129 -0.095703,-0.2207 -0.016509,-0.025 -0.035881,-0.05 -0.0625,-0.062 -0.038805,-0.019 -0.085794,-0.017 -0.1269531,-0.031 -0.053757,-0.018 -0.1041668,-0.042 -0.15625,-0.064 -0.065574,-0.028 -0.07982,-0.049 -0.1582032,-0.062 -0.031138,-0.01 -0.064136,0 -0.095703,0 l -0.03125,0 -0.03125,0 c -0.022321,-0.01 -0.039674,-0.026 -0.0625,-0.031 -0.020417,-0.01 -0.043409,0 -0.064453,0 l -0.09375,0 -0.03125,0 c -0.010522,0 -0.02381,-0.01 -0.03125,0 z m 2.7773437,1.3281 c -0.010522,0 0,0.02 0,0.031 0,0.011 -0.00471,0.023 0,0.033 0.00666,0.013 0.022322,0.019 0.03125,0.031 0.022764,0.03 0.045533,0.062 0.0625,0.096 0.014881,0.03 0.00968,0.07 0.033203,0.094 0.043385,0.043 0.1013719,0.068 0.15625,0.096 0.1188711,0.059 0.1645892,0.066 0.2851563,0.096 0.024295,0.01 0.048048,0.011 0.072266,0.018 -0.035465,-0.016 -0.068222,-0.036 -0.1035156,-0.053 -0.094095,-0.043 -0.2022493,-0.063 -0.2851563,-0.125 -0.049085,-0.037 -0.056081,-0.1097 -0.09375,-0.1582 -0.036544,-0.047 -0.084863,-0.085 -0.1269531,-0.1269 -0.010522,-0.011 -0.016369,-0.031 -0.03125,-0.031 z m 0.640625,0.4942 c 0.00747,0 0.013718,0.01 0.021484,0.012 0.00726,0 0.015762,2e-4 0.023437,0 -0.015401,0 -0.029805,-0.01 -0.044922,-0.012 z m 0.044922,0.012 c 0.00267,5e-4 0.00513,0 0.00781,0 l 0.095703,0 0.03125,0 0.0625,0 0.033203,0 c 0.01331,-0.01 0.016814,-0.027 0.03125,-0.031 0.030625,-0.01 0.063803,0.01 0.09375,0 0.035992,-0.012 0.060831,-0.05 0.095703,-0.064 0.039877,-0.017 0.08291,-0.02 0.125,-0.031 0.04209,-0.011 0.085794,-0.017 0.1269531,-0.031 0.022321,-0.01 0.040178,-0.025 0.0625,-0.033 l 0.03125,0 c 0.01331,-0.01 0.018611,-0.028 0.033203,-0.031 0.041272,-0.01 0.08291,0 0.125,0 0.021045,0 0.045629,0.01 0.064453,0 0.00941,0 -0.00744,-0.025 0,-0.033 0.00744,-0.01 0.020728,0 0.03125,0 l 0.03125,0 0.03125,0 c 0.01331,-0.01 0.017133,-0.026 0.03125,-0.031 0.019965,-0.01 0.043409,0 0.064453,0 l 0.03125,0 0.2207031,0 0.0625,0 0.03125,0 c 0.033934,-0.017 0.064136,-0.042 0.095703,-0.062 l 0,0 -0.3164062,0 -0.4101563,0 -0.1269531,0 -0.09375,0 -0.03125,0 c -0.022321,0.01 -0.042324,0.018 -0.0625,0.031 -0.032533,0.02 -0.065351,0.042 -0.095703,0.064 -0.011905,0.01 -0.020728,0.02 -0.03125,0.031 l -0.0625,0.062 c -0.031567,0.032 -0.060843,0.068 -0.095703,0.096 -0.018373,0.015 -0.041455,0.02 -0.0625,0.031 -0.021045,0.011 -0.041382,0.028 -0.064453,0.033 -0.030954,0.01 -0.062183,0 -0.09375,0 l -0.0625,0 c -0.013392,0 -0.027584,-4e-4 -0.041016,0 z m 3.0390625,-0.3809 c -0.031341,0.042 -0.06695,0.081 -0.09375,0.125 -0.031568,0.053 0.020728,0.02 0.03125,0.031 0.00306,0 4.24e-4,0.01 0,0.014 0.018782,-0.057 0.042497,-0.11 0.0625,-0.17 z m -0.0625,0.17 c -0.047499,0.1431 -0.08992,0.2834 -0.1582031,0.4296 -0.025946,0.056 -0.065906,0.1045 -0.095703,0.1582 -0.022853,0.041 -0.029225,0.092 -0.0625,0.125 -0.055502,0.055 -0.303613,0.03 -0.3164062,0.031 -0.023385,0 -0.039116,0.03 -0.0625,0.033 -0.073206,0.01 -0.1470461,0 -0.2207031,0 l -0.2207031,0 -0.1269532,0 -0.03125,0 -0.03125,0 c -0.01331,-0.01 -0.016814,-0.029 -0.03125,-0.033 -0.030625,-0.01 -0.064136,0 -0.095703,0 l -0.03125,0 -0.03125,0 c -0.010522,0 -0.02381,-0.01 -0.03125,0 -0.00744,0.01 0,0.022 0,0.033 l 0,0.031 c 0,0.011 -0.00471,0.021 0,0.031 0.00666,0.013 0.021566,0.021 0.03125,0.033 0.053484,0.062 0.097117,0.1345 0.1582031,0.1895 0.045605,0.041 0.1110685,0.054 0.1582032,0.094 0.018075,0.015 0.014613,0.049 0.03125,0.064 0.00744,0.01 0.021268,0 0.03125,0 0.022321,0.01 0.039674,0.025 0.0625,0.031 0.020417,0.01 0.041455,0 0.0625,0 l 0.095703,0 0.03125,0 0.03125,0 c 0.01331,-0.01 0.020728,-0.02 0.03125,-0.031 0.052612,-0.01 0.1077794,-0.014 0.1582031,-0.033 0.066337,-0.024 0.1229788,-0.07 0.1894531,-0.094 0.081715,-0.029 0.1777312,-0.023 0.2539063,-0.064 0.046188,-0.025 0.05951,-0.085 0.09375,-0.125 0.029053,-0.034 0.072734,-0.058 0.095703,-0.096 0.010827,-0.018 -0.00413,-0.043 0,-0.062 0.00653,-0.033 0.024724,-0.063 0.03125,-0.096 0.00413,-0.021 0,-0.041 0,-0.062 l 0,-0.1269 0,-0.3457 0,-0.096 c 0,-0.01 -6.057e-4,-0.013 0,-0.019 z m -7.04687504,2.0644 c 0.0152001,-4e-4 0.006917,0.01 -0.1503906,0.01 -0.0104924,0.041 -0.0271565,0.082 -0.0332031,0.125 -0.00446,0.031 0,0.064 0,0.096 l 0,0.094 0,0.096 c 0,0.042 -0.003074,0.052 0.0332031,0.096 0.038106,0.046 0.0829099,0.083 0.125,0.125 0.021045,0.021 0.0458611,0.039 0.0644531,0.062 0.0237,0.03 0.032148,0.073 0.0625,0.096 0.016836,0.013 0.041455,0 0.0625,0 l 0.0644531,0 0.03125,0 c 0,0.011 -0.00998,0.027 0,0.031 0.029947,0.01 0.062183,0 0.09375,0 l 0.18945314,0 0.064453,0 0.03125,0 c 0.01331,0.01 0.01794,0.026 0.03125,0.033 0.050661,0.025 0.112232,0.025 0.1582031,0.062 0.1465818,0.1173 0.044161,0.1004 0.2519531,0.1895 0.019343,0.01 0.041455,0 0.0625,0 l 0.1582032,0 0.03125,0 0.03125,0 c 0.054878,0.027 0.100937,0.074 0.1582031,0.096 0.080986,0.031 0.1697268,0.042 0.2539062,0.062 0.084179,0.021 0.1696358,0.036 0.2519531,0.062 0.014117,0 0.01794,0.026 0.03125,0.033 0.00941,0 0.02381,-0.01 0.03125,0 0.00744,0.01 -0.00876,0.025 0,0.031 0.027686,0.018 0.063831,0.021 0.095703,0.031 0.048074,0.014 0.2666633,0.08 0.3457031,0.096 l 0.033203,0 c 0.1490665,0.074 -0.1939435,-0.018 0.125,0.062 l 0.03125,0 c 0.031567,0 0.065078,-0.01 0.095703,0 0.05612,0.014 0.00206,0.078 0.09375,0.033 0.00941,0 0,-0.022 0,-0.033 l 0,-0.062 c 0,-0.1364 0.018322,-0.038 -0.1894532,-0.1895 -0.3675805,-0.2674 0.1110864,0.01 -0.5664062,-0.3164 -0.084973,-0.04 -0.1655938,-0.093 -0.2539063,-0.125 -0.5760588,-0.2122 -0.1312308,-0.018 -0.5683593,-0.1269 -0.054973,-0.014 -0.1035348,-0.047 -0.1582032,-0.062 -0.06175,-0.017 -0.1263249,-0.014 -0.1875,-0.033 -0.2656633,-0.082 -0.1603645,-0.1003 -0.4121094,-0.1563 -0.030816,-0.01 -0.066681,0.016 -0.09375,0 -0.032533,-0.02 -0.032148,-0.073 -0.0625,-0.096 -0.016836,-0.013 -0.046408,0.011 -0.064453,0 -0.063948,-0.038 -0.14805214,-0.1689 -0.18945314,-0.2207 -0.0093,-0.012 -0.024595,-0.019 -0.03125,-0.033 -0.00471,-0.01 0.00744,-0.023 0,-0.031 -0.00744,-0.01 -0.02381,0.01 -0.03125,0 -0.00744,-0.01 0.00744,-0.023 0,-0.031 -0.00744,-0.01 -0.02381,0.01 -0.03125,0 -0.00744,-0.01 0.00744,-0.025 0,-0.033 -0.00744,-0.01 -0.02381,0.01 -0.03125,0 -0.00744,-0.01 0.00744,-0.023 0,-0.031 -0.00744,-0.01 -0.0237921,0 -0.0332031,0 -0.0613292,-0.031 -0.0210595,-0.039 -0.005859,-0.039 z"
         style="opacity:0.5;fill:#ffffff;fill-opacity:0.5;stroke:none;stroke-width:10;stroke-linecap:round;stroke-linejoin:round;stroke-miterlimit:4;stroke-dasharray:none;stroke-dashoffset:0;stroke-opacity:1" />
    </g>
  </g>
</svg>
