<?xml version="1.0" encoding="UTF-8" standalone="no"?>
<!-- Created with Inkscape (http://www.inkscape.org/) -->

<svg
   xmlns:dc="http://purl.org/dc/elements/1.1/"
   xmlns:cc="http://creativecommons.org/ns#"
   xmlns:rdf="http://www.w3.org/1999/02/22-rdf-syntax-ns#"
   xmlns:svg="http://www.w3.org/2000/svg"
   xmlns="http://www.w3.org/2000/svg"
   xmlns:sodipodi="http://sodipodi.sourceforge.net/DTD/sodipodi-0.dtd"
   xmlns:inkscape="http://www.inkscape.org/namespaces/inkscape"
   width="10"
   height="10"
   viewBox="0 0 10 10"
   id="svg6749"
   version="1.1"
   inkscape:version="0.91 r13725"
   sodipodi:docname="bomb.svg">
  <defs
     id="defs6751" />
  <sodipodi:namedview
     id="base"
     pagecolor="#ffffff"
     bordercolor="#666666"
     borderopacity="1.0"
     inkscape:pageopacity="0.0"
     inkscape:pageshadow="2"
     inkscape:zoom="22.4"
     inkscape:cx="-0.5344098"
     inkscape:cy="6.6410083"
     inkscape:document-units="px"
     inkscape:current-layer="layer1"
     showgrid="false"
     units="px"
     inkscape:window-width="1920"
     inkscape:window-height="1017"
     inkscape:window-x="-8"
     inkscape:window-y="-8"
     inkscape:window-maximized="1" />
  <metadata
     id="metadata6754">
    <rdf:RDF>
      <cc:Work
         rdf:about="">
        <dc:format>image/svg+xml</dc:format>
        <dc:type
           rdf:resource="http://purl.org/dc/dcmitype/StillImage" />
        <dc:title></dc:title>
      </cc:Work>
    </rdf:RDF>
  </metadata>
  <g
     inkscape:label="Layer 1"
     inkscape:groupmode="layer"
     id="layer1"
     transform="translate(0,-1042.3622)">
    <path
       inkscape:connector-curvature="0"
       style="color:#000000;font-style:normal;font-variant:normal;font-weight:normal;font-stretch:normal;font-size:medium;line-height:normal;font-family:sans-serif;text-indent:0;text-align:start;text-decoration:none;text-decoration-line:none;text-decoration-style:solid;text-decoration-color:#000000;letter-spacing:normal;word-spacing:normal;text-transform:none;direction:ltr;block-progression:tb;writing-mode:lr-tb;baseline-shift:baseline;text-anchor:start;white-space:normal;clip-rule:nonzero;display:inline;overflow:visible;visibility:visible;opacity:1;isolation:auto;mix-blend-mode:normal;color-interpolation:sRGB;color-interpolation-filters:linearRGB;solid-color:#000000;solid-opacity:1;fill:#ffffff;fill-opacity:1;fill-rule:nonzero;stroke:none;stroke-width:3;stroke-linecap:round;stroke-linejoin:round;stroke-miterlimit:4;stroke-dasharray:none;stroke-dashoffset:0;stroke-opacity:1;color-rendering:auto;image-rendering:auto;shape-rendering:auto;text-rendering:auto;enable-background:accumulate"
       d="m 5.0000002,1042.3624 c -0.11615,0 -0.2226325,0.02 -0.3203125,0.068 -0.0888,0.044 -0.1960938,0.1325 -0.2148437,0.2734 l -0.1464844,0.6621 c -0.59661,0.1016 -1.1590269,0.3338 -1.6542969,0.6816 l -0.6113281,-0.3886 c -0.11299,-0.087 -0.2494399,-0.073 -0.3437499,-0.041 -0.10359,0.034 -0.1932707,0.095 -0.2753906,0.1777 -0.0821,0.082 -0.1432044,0.1718 -0.1777344,0.2754 -0.0314,0.094 -0.044984,0.2309 0.041016,0.3437 l 0.3886719,0.6133 c -0.34831,0.4947 -0.5792607,1.0561 -0.6816407,1.6524 l -0.66015663,0.1468 c -0.14229,0.018 -0.2287875,0.1256 -0.2734375,0.2149 -0.0488,0.098 -0.070312505,0.2041 -0.070312505,0.3203 0,0.1161 0.021512505,0.2226 0.070312505,0.3203 0.0445,0.089 0.12989438,0.1966 0.27148438,0.2149 l 0.66210935,0.1464 c 0.0963,0.5633 0.3078701,1.095 0.625,1.5704 l -0.63867185,1.0039 c -0.0861,0.1128 -0.0723156,0.2477 -0.0410156,0.3418 0.0345,0.1036 0.0956544,0.1951 0.17773435,0.2773 0.0821,0.082 0.1737538,0.1432 0.2773438,0.1777 0.0951,0.032 0.2321831,0.046 0.3457031,-0.043 l 0.9999999,-0.6368 c 0.47472,0.3162 1.0060994,0.5287 1.5683594,0.625 l 0.1464844,0.6602 c 0.019,0.1406 0.1261637,0.2272 0.2148437,0.2715 0.0977,0.049 0.2041625,0.07 0.3203125,0.07 0.11615,0 0.2226425,-0.021 0.3203125,-0.07 0.0887,-0.044 0.1958838,-0.1309 0.2148437,-0.2715 l 0.1464844,-0.6621 c 0.56186,-0.096 1.0938794,-0.3073 1.5683594,-0.6231 l 1.0019531,0.6368 c 0.1129,0.087 0.24934,0.074 0.34375,0.043 0.10374,-0.034 0.1951338,-0.096 0.2773438,-0.1777 0.0821,-0.082 0.1432043,-0.1718 0.1777343,-0.2754 0.0315,-0.094 0.044231,-0.2326 -0.042969,-0.3457 l -0.6367187,-1 c 0.31751,-0.4755 0.5304831,-1.0088 0.6269531,-1.5723 l 0.6601565,-0.1464 c 0.14159,-0.018 0.2269644,-0.1259 0.2714844,-0.2149 0.0488,-0.098 0.070312,-0.2042 0.070312,-0.3203 0,-0.1162 -0.021513,-0.2226 -0.070312,-0.3203 -0.0446,-0.089 -0.1315075,-0.1968 -0.2734375,-0.2149 l -0.6601562,-0.1464 c -0.1015701,-0.5966 -0.3338807,-1.159 -0.6816407,-1.6543 l 0.3886719,-0.6114 c 0.087,-0.113 0.072416,-0.2493 0.041016,-0.3437 -0.0345,-0.1036 -0.095654,-0.1933 -0.1777344,-0.2754 -0.0821,-0.082 -0.1718006,-0.1432 -0.2753906,-0.1777 -0.0941,-0.031 -0.2309,-0.045 -0.34375,0.041 l -0.6132816,0.3906 c -0.49461,-0.3482 -1.0561638,-0.5812 -1.6523438,-0.6836 l -0.1464844,-0.6621 c -0.0187,-0.1409 -0.1260437,-0.2271 -0.2148437,-0.2715 -0.0977,-0.049 -0.2041725,-0.068 -0.3203125,-0.068 l 0,0 z m 0,0.4609 c 0.0432,0 0.071197,0.011 0.091797,0.018 l 0.1699218,0.7617 a 0.23079231,0.23076923 0 0 0 0.1953124,0.1778 c 0.63493,0.082 1.2367907,0.3303 1.7441407,0.7207 a 0.23079231,0.23076923 0 0 0 0.2636719,0.012 l 0.6992187,-0.4434 c 0.0196,0.01 0.045572,0.023 0.076172,0.053 0.0306,0.031 0.043134,0.058 0.052734,0.078 l -0.441406,0.6953 a 0.23079231,0.23076923 0 0 0 0.011719,0.2637 c 0.3898201,0.5081 0.6362169,1.1109 0.7167969,1.7461 a 0.23079231,0.23076923 0 0 0 0.1796875,0.1953 l 0.7617188,0.1699 c 0.007,0.021 0.017578,0.049 0.017578,0.092 0,0.043 -0.010778,0.072 -0.017578,0.092 l -0.7597659,0.1699 a 0.23079231,0.23076923 0 0 0 -0.1796876,0.1953 c -0.0773,0.6039 -0.3053624,1.1798 -0.6640624,1.6719 a 0.23079231,0.23076923 0 0 0 -0.00781,0.2598 l 0.6894532,1.084 c -0.01,0.02 -0.022134,0.045 -0.052734,0.076 -0.0306,0.031 -0.058525,0.044 -0.078125,0.053 l -1.0859405,-0.6895 a 0.23079231,0.23076923 0 0 0 -0.2578125,0.01 c -0.4912,0.3571 -1.0656188,0.585 -1.6679688,0.6621 a 0.23079231,0.23076923 0 0 0 -0.1953124,0.1777 l -0.1699219,0.7617 c -0.0207,0.01 -0.048597,0.016 -0.091797,0.016 -0.0432,0 -0.071197,-0.01 -0.091797,-0.016 l -0.1699217,-0.7597 a 0.23079231,0.23076923 0 0 0 -0.1953124,-0.1797 c -0.60283,-0.077 -1.1765388,-0.3045 -1.6679688,-0.6621 a 0.23079231,0.23076923 0 0 0 -0.2597656,-0.01 l -1.0839843,0.6895 c -0.0196,-0.01 -0.045572,-0.023 -0.076172,-0.053 -0.0306,-0.03 -0.045087,-0.056 -0.054687,-0.076 l 0.6894527,-1.086 a 0.23079231,0.23076923 0 0 0 -0.00781,-0.2597 c -0.3583098,-0.492 -0.5869124,-1.0664 -0.6640623,-1.67 a 0.23079231,0.23076923 0 0 0 -0.1777344,-0.1953 l -0.76171882,-0.1699 c -0.007,-0.021 -0.0175781,-0.049 -0.0175781,-0.092 0,-0.043 0.0107781,-0.071 0.0175781,-0.092 l 0.75976562,-0.168 a 0.23079231,0.23076923 0 0 0 0.1796876,-0.1972 c 0.0815,-0.6349 0.3303031,-1.2367 0.7207031,-1.7442 a 0.23079231,0.23076923 0 0 0 0.011719,-0.2636 l -0.4433594,-0.6973 c 0.01,-0.02 0.022134,-0.047 0.052734,-0.078 0.0306,-0.031 0.056572,-0.044 0.076172,-0.053 l 0.6953128,0.4434 a 0.23079231,0.23076923 0 0 0 0.265625,-0.012 c 0.50805,-0.3899 1.1107637,-0.6382 1.7460938,-0.7188 a 0.23079231,0.23076923 0 0 0 0.1953124,-0.1797 l 0.1699219,-0.7597 c 0.0207,-0.01 0.048697,-0.018 0.091797,-0.018 l 0,0 z m -1.2304688,2.5391 a 0.76923077,0.76915385 0 0 0 -0.7695312,0.7695 0.76923077,0.76915385 0 0 0 0.7695312,0.7676 0.76923077,0.76915385 0 0 0 0.7695313,-0.7676 0.76923077,0.76915385 0 0 0 -0.7695313,-0.7695 z m 2.4609376,0 a 0.76923077,0.76915385 0 0 0 -0.7695313,0.7695 0.76923077,0.76915385 0 0 0 0.7695313,0.7676 0.76923077,0.76915385 0 0 0 0.7695312,-0.7676 0.76923077,0.76915385 0 0 0 -0.7695312,-0.7695 z m -2.4609376,2.4609 a 0.76923077,0.76915385 0 0 0 -0.7695312,0.7696 0.76923077,0.76915385 0 0 0 0.7695312,0.7695 0.76923077,0.76915385 0 0 0 0.7695313,-0.7695 0.76923077,0.76915385 0 0 0 -0.7695313,-0.7696 z m 2.4609376,0 a 0.76923077,0.76915385 0 0 0 -0.7695313,0.7696 0.76923077,0.76915385 0 0 0 0.7695313,0.7695 0.76923077,0.76915385 0 0 0 0.7695312,-0.7695 0.76923077,0.76915385 0 0 0 -0.7695312,-0.7696 z"
       id="path5349-5-4-0-3" />
  </g>
</svg>
