<?xml version="1.0" encoding="UTF-8" standalone="no"?>
<!-- Created with Inkscape (http://www.inkscape.org/) -->

<svg
   xmlns:dc="http://purl.org/dc/elements/1.1/"
   xmlns:cc="http://creativecommons.org/ns#"
   xmlns:rdf="http://www.w3.org/1999/02/22-rdf-syntax-ns#"
   xmlns:svg="http://www.w3.org/2000/svg"
   xmlns="http://www.w3.org/2000/svg"
   xmlns:sodipodi="http://sodipodi.sourceforge.net/DTD/sodipodi-0.dtd"
   xmlns:inkscape="http://www.inkscape.org/namespaces/inkscape"
   width="50"
   height="50"
   viewBox="0 0 50.000001 50.000001"
   id="svg4540"
   version="1.1"
   inkscape:version="0.91 r13725"
   sodipodi:docname="btn_eyedropper.svg">
  <defs
     id="defs4542" />
  <sodipodi:namedview
     id="base"
     pagecolor="#ffffff"
     bordercolor="#666666"
     borderopacity="1.0"
     inkscape:pageopacity="0.0"
     inkscape:pageshadow="2"
     inkscape:zoom="4.23"
     inkscape:cx="-16.765324"
     inkscape:cy="42.496204"
     inkscape:document-units="px"
     inkscape:current-layer="layer1"
     showgrid="false"
     units="px"
     inkscape:window-width="1920"
     inkscape:window-height="1017"
     inkscape:window-x="-8"
     inkscape:window-y="-8"
     inkscape:window-maximized="1" />
  <metadata
     id="metadata4545">
    <rdf:RDF>
      <cc:Work
         rdf:about="">
        <dc:format>image/svg+xml</dc:format>
        <dc:type
           rdf:resource="http://purl.org/dc/dcmitype/StillImage" />
        <dc:title />
      </cc:Work>
    </rdf:RDF>
  </metadata>
  <g
     inkscape:label="Layer 1"
     inkscape:groupmode="layer"
     id="layer1"
     transform="translate(0,-1002.3622)">
    <path
       inkscape:connector-curvature="0"
       style="color:#000000;font-style:normal;font-variant:normal;font-weight:normal;font-stretch:normal;font-size:medium;line-height:normal;font-family:sans-serif;text-indent:0;text-align:start;text-decoration:none;text-decoration-line:none;text-decoration-style:solid;text-decoration-color:#000000;letter-spacing:normal;word-spacing:normal;text-transform:none;direction:ltr;block-progression:tb;writing-mode:lr-tb;baseline-shift:baseline;text-anchor:start;white-space:normal;clip-rule:nonzero;display:inline;overflow:visible;visibility:visible;opacity:1;isolation:auto;mix-blend-mode:normal;color-interpolation:sRGB;color-interpolation-filters:linearRGB;solid-color:#000000;solid-opacity:1;fill:#ffffff;fill-opacity:1;fill-rule:nonzero;stroke:none;stroke-width:2.26050472;stroke-linecap:round;stroke-linejoin:round;stroke-miterlimit:4;stroke-dasharray:none;stroke-dashoffset:0;stroke-opacity:1;color-rendering:auto;image-rendering:auto;shape-rendering:auto;text-rendering:auto;enable-background:accumulate"
       d="m 31.229174,1010.12 c -1.59985,0.1119 -3.11484,0.9929 -3.98047,2.4922 l -2.5,4.3301 -2.16601,-1.25 c -1.19944,-0.6925 -2.72157,-0.2834 -3.41407,0.916 -0.6925,1.1995 -0.28537,2.7216 0.91407,3.4141 l 2.16601,1.25 -2.25,3.8984 -2,3.4629 -3.21875,5.5762 a 1.1303654,1.1303654 0 0 0 -0.1289,0.3398 l -1.45508,7.166 a 1.1303654,1.1303654 0 0 0 0.54101,1.2012 l 2.6836,1.5488 a 1.1303654,1.1303654 0 0 0 1.31054,-0.1308 l 5.47852,-4.8438 a 1.1303654,1.1303654 0 0 0 0.23047,-0.2812 l 7.46875,-12.9375 2.16601,1.25 c 1.19944,0.6925 2.72157,0.2854 3.41407,-0.9141 0.6925,-1.1994 0.28537,-2.7235 -0.91407,-3.416 l -2.16601,-1.25 2.5,-4.3301 c 1.385,-2.3988 0.56881,-5.4451 -1.83008,-6.8301 -0.89958,-0.5193 -1.8897,-0.7292 -2.84961,-0.6621 z m -7.02344,12.2832 4.7461,2.7403 -5.03711,8.7246 -6.32813,0 1.86914,-3.2383 2.37305,1.3711 c 0.47978,0.277 1.08823,0.1126 1.36523,-0.3672 0.277,-0.4798 0.11455,-1.0882 -0.36523,-1.3652 l -2.37305,-1.3711 1,-1.7305 2.37305,1.3692 c 0.47978,0.277 1.08823,0.1145 1.36523,-0.3653 0.277,-0.4798 0.11455,-1.0902 -0.36523,-1.3672 l -2.37305,-1.3691 1.75,-3.0313 z"
       id="rect4495-3-3-6-4-3" />
  </g>
</svg>
