<?xml version="1.0" encoding="UTF-8" standalone="no"?>
<!-- Created with Inkscape (http://www.inkscape.org/) -->

<svg
   xmlns:dc="http://purl.org/dc/elements/1.1/"
   xmlns:cc="http://creativecommons.org/ns#"
   xmlns:rdf="http://www.w3.org/1999/02/22-rdf-syntax-ns#"
   xmlns:svg="http://www.w3.org/2000/svg"
   xmlns="http://www.w3.org/2000/svg"
   xmlns:sodipodi="http://sodipodi.sourceforge.net/DTD/sodipodi-0.dtd"
   xmlns:inkscape="http://www.inkscape.org/namespaces/inkscape"
   width="50"
   height="50"
   viewBox="0 0 50.000001 50.000001"
   id="svg5425"
   version="1.1"
   inkscape:version="0.91 r13725"
   sodipodi:docname="btn_delete.svg">
  <defs
     id="defs5427" />
  <sodipodi:namedview
     id="base"
     pagecolor="#ffffff"
     bordercolor="#666666"
     borderopacity="1.0"
     inkscape:pageopacity="0.0"
     inkscape:pageshadow="2"
     inkscape:zoom="3.959798"
     inkscape:cx="18.894426"
     inkscape:cy="52.435116"
     inkscape:document-units="px"
     inkscape:current-layer="layer1"
     showgrid="false"
     units="px"
     inkscape:window-width="1920"
     inkscape:window-height="1017"
     inkscape:window-x="-8"
     inkscape:window-y="-8"
     inkscape:window-maximized="1" />
  <metadata
     id="metadata5430">
    <rdf:RDF>
      <cc:Work
         rdf:about="">
        <dc:format>image/svg+xml</dc:format>
        <dc:type
           rdf:resource="http://purl.org/dc/dcmitype/StillImage" />
        <dc:title></dc:title>
      </cc:Work>
    </rdf:RDF>
  </metadata>
  <g
     inkscape:label="Layer 1"
     inkscape:groupmode="layer"
     id="layer1"
     transform="translate(0,-1002.3622)">
    <path
       style="opacity:1;fill:#ffffff;fill-opacity:1;stroke:none;stroke-width:2;stroke-linecap:round;stroke-linejoin:round;stroke-miterlimit:4;stroke-dasharray:none;stroke-dashoffset:0;stroke-opacity:1"
       d="m 14.393555,1011.7519 c -1.278096,0 -2.555814,0.4894 -3.535156,1.4687 -1.9586862,1.9587 -1.9586862,5.1117 0,7.0703 l 7.072265,7.0723 -7.072265,7.0703 c -1.9586862,1.9587 -1.9586862,5.1116 0,7.0703 1.958685,1.9587 5.111626,1.9587 7.070312,0 l 7.072266,-7.0703 7.070312,7.0703 c 1.958686,1.9587 5.111627,1.9587 7.070312,0 1.958686,-1.9587 1.958686,-5.1116 0,-7.0703 l -7.070312,-7.0703 7.070312,-7.0723 c 1.958686,-1.9586 1.958686,-5.1116 0,-7.0703 -1.958685,-1.9587 -5.111626,-1.9587 -7.070312,0 l -7.070312,7.0723 -7.072266,-7.0723 c -0.979343,-0.9793 -2.257061,-1.4687 -3.535156,-1.4687 z"
       id="rect4495-3-3"
       inkscape:connector-curvature="0" />
  </g>
</svg>
