<?xml version="1.0" encoding="UTF-8" standalone="no"?>
<!-- Created with Inkscape (http://www.inkscape.org/) -->

<svg
   xmlns:dc="http://purl.org/dc/elements/1.1/"
   xmlns:cc="http://creativecommons.org/ns#"
   xmlns:rdf="http://www.w3.org/1999/02/22-rdf-syntax-ns#"
   xmlns:svg="http://www.w3.org/2000/svg"
   xmlns="http://www.w3.org/2000/svg"
   xmlns:sodipodi="http://sodipodi.sourceforge.net/DTD/sodipodi-0.dtd"
   xmlns:inkscape="http://www.inkscape.org/namespaces/inkscape"
   width="50"
   height="50"
   viewBox="0 0 50.000001 50.000001"
   id="svg4543"
   version="1.1"
   inkscape:version="0.91 r13725"
   sodipodi:docname="btn_bomb.svg">
  <defs
     id="defs4545" />
  <sodipodi:namedview
     id="base"
     pagecolor="#ffffff"
     bordercolor="#666666"
     borderopacity="1.0"
     inkscape:pageopacity="0.0"
     inkscape:pageshadow="2"
     inkscape:zoom="5.6"
     inkscape:cx="42.401006"
     inkscape:cy="28.895382"
     inkscape:document-units="px"
     inkscape:current-layer="layer1"
     showgrid="false"
     units="px"
     inkscape:window-width="1920"
     inkscape:window-height="1017"
     inkscape:window-x="-8"
     inkscape:window-y="-8"
     inkscape:window-maximized="1" />
  <metadata
     id="metadata4548">
    <rdf:RDF>
      <cc:Work
         rdf:about="">
        <dc:format>image/svg+xml</dc:format>
        <dc:type
           rdf:resource="http://purl.org/dc/dcmitype/StillImage" />
        <dc:title />
      </cc:Work>
    </rdf:RDF>
  </metadata>
  <g
     inkscape:label="Layer 1"
     inkscape:groupmode="layer"
     id="layer1"
     transform="translate(0,-1002.3622)">
    <path
       style="opacity:1;fill:#000000;fill-opacity:1;stroke:none;stroke-width:20;stroke-linecap:square;stroke-linejoin:round;stroke-miterlimit:4;stroke-dasharray:none;stroke-dashoffset:0;stroke-opacity:1"
       d="m 24.998796,1012.3699 a 0.96750083,0.48372551 0 0 0 -0.967727,0.4825 l -0.56236,2.5329 a 12.093762,12.093137 0 0 0 -6.495266,2.9523 l -1.651929,-1.0498 a 0.48373799,0.96747592 45.002463 0 0 -0.03743,-0.03 0.48373799,0.96747592 45.002463 0 0 -0.04451,-0.024 0.48373799,0.96747592 45.002463 0 0 -0.04919,-0.017 0.48373798,0.96747592 45.002462 0 0 -0.03755,-0.012 0.48373799,0.96747592 45.002463 0 0 -0.03048,0 0.48373799,0.96747592 45.002463 0 0 -0.03048,0 0.48373799,0.96747592 45.002463 0 0 -0.01644,0 0.48373799,0.96747592 45.002463 0 0 -0.133564,0.021 0.48373799,0.96747592 45.002463 0 0 -0.06562,0.019 0.48373798,0.96747592 45.002462 0 0 -0.03048,0.012 0.48373799,0.96747592 45.002463 0 0 -0.03515,0.012 0.48373798,0.96747592 45.002462 0 0 -0.01644,0.011 0.48373799,0.96747592 45.002463 0 0 -0.05158,0.025 0.48373798,0.96747592 45.002462 0 0 -0.07727,0.039 0.48373798,0.96747592 45.002462 0 0 -0.02112,0.012 0.48373799,0.96747592 45.002463 0 0 -0.05387,0.035 0.48373798,0.96747592 45.002462 0 0 -0.05387,0.035 0.48373799,0.96747592 45.002463 0 0 -0.09838,0.075 0.48373798,0.96747592 45.002462 0 0 -0.03983,0.035 0.48373799,0.96747592 45.002463 0 0 -0.03275,0.027 0.48373798,0.96747592 45.002462 0 0 -0.02112,0.021 0.48373799,0.96747592 45.002463 0 0 -0.04919,0.047 0.48373799,0.96747592 45.002463 0 0 -0.06094,0.064 0.48373798,0.96747592 45.002462 0 0 -0.0048,0.012 0.48373799,0.96747592 45.002463 0 0 -0.04451,0.051 0.48373798,0.96747592 45.002462 0 0 -0.04223,0.052 0.48373799,0.96747592 45.002463 0 0 -0.03275,0.042 0.48373799,0.96747592 45.002463 0 0 -0.03743,0.054 0.48373798,0.96747592 45.002462 0 0 -0.04691,0.072 0.48373799,0.96747592 45.002463 0 0 -0.0048,0 0.48373798,0.96747592 45.002462 0 0 -0.012,0.021 0.48373799,0.96747592 45.002463 0 0 -0.02807,0.054 0.48373798,0.96747592 45.002462 0 0 -0.03516,0.074 0.48373798,0.96747592 45.002462 0 0 -0.01872,0.047 0.48373799,0.96747592 45.002463 0 0 -0.01644,0.04 0.48373798,0.96747592 45.002462 0 0 -0.0072,0.03 0.48373799,0.96747592 45.002463 0 0 -0.012,0.044 0.48373798,0.96747592 45.002462 0 0 -0.0048,0.014 0.48373799,0.96747592 45.002463 0 0 -0.0096,0.056 0.48373799,0.96747592 45.002463 0 0 -0.0048,0.054 0.48373798,0.96747592 45.002462 0 0 0,0.013 0.48373799,0.96747592 45.002463 0 0 0.0024,0.042 0.48373798,0.96747592 45.002462 0 0 0.0048,0.037 0.48373799,0.96747592 45.002463 0 0 0.0072,0.032 0.48373799,0.96747592 45.002463 0 0 0.01872,0.047 0.48373798,0.96747592 45.002462 0 0 0.0024,0.012 0.48373799,0.96747592 45.002463 0 0 0.0234,0.037 0.48373799,0.96747592 45.002463 0 0 0.02112,0.027 l 1.13878,1.7879 a 12.093762,12.093137 0 0 0 -2.076035,5.3914 l -2.528286,0.5622 a 0.48375039,0.96745099 0 0 0 -0.04919,0 0.48375041,0.96745099 0 0 0 -0.02339,0.012 0.48375039,0.96745099 0 0 0 -0.012,0 0.48375041,0.96745099 0 0 0 -0.02807,0.012 0.48375039,0.96745099 0 0 0 -0.01644,0.012 0.48375041,0.96745099 0 0 0 -0.01404,0.012 0.48375039,0.96745099 0 0 0 -0.04211,0.03 0.48375041,0.96745099 0 0 0 -0.01404,0.012 0.48375039,0.96745099 0 0 0 -0.02112,0.021 0.48375041,0.96745099 0 0 0 -0.012,0.014 0.48375039,0.96745099 0 0 0 -0.03275,0.037 0.48375041,0.96745099 0 0 0 -0.0258,0.037 0.48375039,0.96745099 0 0 0 -0.01872,0.03 0.48375041,0.96745099 0 0 0 -0.0096,0.017 0.48375039,0.96745099 0 0 0 -0.02339,0.042 0.48375041,0.96745099 0 0 0 -0.0234,0.051 0.48375039,0.96745099 0 0 0 -0.0048,0.013 0.48375041,0.96745099 0 0 0 -0.01872,0.044 0.48375039,0.96745099 0 0 0 -0.01644,0.049 0.48375041,0.96745099 0 0 0 -0.01404,0.047 0.48375039,0.96745099 0 0 0 -0.0048,0.021 0.48375041,0.96745099 0 0 0 -0.0072,0.02 0.48375039,0.96745099 0 0 0 -0.01404,0.061 0.48375041,0.96745099 0 0 0 -0.01644,0.091 0.48375041,0.96745099 0 0 0 -0.0072,0.047 0.48375039,0.96745099 0 0 0 -0.0096,0.071 0.48375041,0.96745099 0 0 0 0,0.017 0.48375039,0.96745099 0 0 0 -0.0048,0.084 0.48375039,0.96745099 0 0 0 -0.0024,0.068 0.48375039,0.96745099 0 0 0 0.0024,0.068 0.48375041,0.96745099 0 0 0 0.0048,0.084 0.48375039,0.96745099 0 0 0 0,0.017 0.48375041,0.96745099 0 0 0 0.0096,0.071 0.48375039,0.96745099 0 0 0 0.0024,0.019 0.48375041,0.96745099 0 0 0 0.0048,0.028 0.48375039,0.96745099 0 0 0 0.01644,0.091 0.48375039,0.96745099 0 0 0 0.02112,0.082 0.48375041,0.96745099 0 0 0 0.0048,0.021 0.48375039,0.96745099 0 0 0 0.01404,0.047 0.48375041,0.96745099 0 0 0 0.01644,0.049 0.48375039,0.96745099 0 0 0 0.01872,0.044 0.48375041,0.96745099 0 0 0 0.0048,0.012 0.48375039,0.96745099 0 0 0 0.0234,0.052 0.48375041,0.96745099 0 0 0 0.02339,0.042 0.48375039,0.96745099 0 0 0 0.0096,0.017 0.48375041,0.96745099 0 0 0 0.01872,0.03 0.48375039,0.96745099 0 0 0 0.0258,0.037 0.48375041,0.96745099 0 0 0 0.0024,0 0.48375039,0.96745099 0 0 0 0.03048,0.035 0.48375041,0.96745099 0 0 0 0.03275,0.035 0.48375039,0.96745099 0 0 0 0.01404,0.012 0.48375041,0.96745099 0 0 0 0.0096,0.012 0.48375039,0.96745099 0 0 0 0.03275,0.021 0.48375041,0.96745099 0 0 0 0.03048,0.017 0.48375039,0.96745099 0 0 0 0.02807,0.012 0.48375041,0.96745099 0 0 0 0.012,0 0.48375039,0.96745099 0 0 0 0.0234,0.013 0.48375041,0.96745099 0 0 0 0.01404,0 0.48375039,0.96745099 0 0 0 0.03515,0 l 2.530626,0.5623 a 12.093762,12.093137 0 0 0 0.124182,0.8013 12.093762,12.093137 0 0 0 0.05387,0.2319 12.093762,12.093137 0 0 0 0.241345,0.949 12.093762,12.093137 0 0 0 0.0703,0.2084 12.093762,12.093137 0 0 0 0.332737,0.9116 12.093762,12.093137 0 0 0 0.117212,0.2578 12.093762,12.093137 0 0 0 0.398336,0.8247 12.093762,12.093137 0 0 0 0.0048,0.013 12.093762,12.093137 0 0 0 0.135902,0.2367 12.093762,12.093137 0 0 0 0.49207,0.8036 12.093762,12.093137 0 0 1 0.0024,0 12.093762,12.093137 0 0 0 0.152302,0.2133 12.093762,12.093137 0 0 0 0.0961,0.1336 l -2.244749,3.5286 a 0.96747592,0.48373798 44.997538 0 0 -0.03048,0.037 0.96747592,0.48373798 44.997538 0 0 -0.02339,0.044 0.96747592,0.48373798 44.997538 0 0 -0.012,0.035 0.96747592,0.48373799 44.997537 0 0 -0.0096,0.047 0.96747592,0.48373798 44.997538 0 0 -0.0024,0.012 0.96747592,0.48373799 44.997537 0 0 -0.0024,0.027 0.96747592,0.48373798 44.997538 0 0 0,0.047 0.96747592,0.48373798 44.997538 0 0 0.02112,0.1337 0.96747592,0.48373798 44.997538 0 0 0.01872,0.061 0.96747592,0.48373799 44.997537 0 0 0.012,0.032 0.96747592,0.48373798 44.997538 0 0 0.012,0.035 0.96747592,0.48373799 44.997537 0 0 0.0072,0.017 0.96747592,0.48373798 44.997538 0 0 0.0258,0.052 0.96747592,0.48373799 44.997537 0 0 0.03983,0.076 0.96747592,0.48373799 44.997537 0 0 0.03515,0.056 0.96747592,0.48373798 44.997538 0 0 0.02112,0.033 0.96747592,0.48373799 44.997537 0 0 0.01404,0.024 0.96747592,0.48373798 44.997538 0 0 0.08674,0.1151 0.96747592,0.48373799 44.997537 0 0 0.01644,0.021 0.96747592,0.48373798 44.997538 0 0 0.04691,0.052 0.96747592,0.48373799 44.997537 0 0 0.06562,0.071 0.96747592,0.48373798 44.997538 0 0 0.06323,0.061 0.96747592,0.48373799 44.997537 0 0 0.0072,0 0.96747592,0.48373798 44.997538 0 0 0.05158,0.044 0.96747592,0.48373799 44.997537 0 0 0.03983,0.032 0.96747592,0.48373798 44.997538 0 0 0.05626,0.044 0.96747592,0.48373799 44.997537 0 0 0.0072,0 0.96747592,0.48373798 44.997538 0 0 0.05387,0.037 0.96747592,0.48373799 44.997537 0 0 0.06094,0.037 0.96747592,0.48373798 44.997538 0 0 0.0096,0.013 0.96747592,0.48373799 44.997537 0 0 0.02112,0.012 0.96747592,0.48373798 44.997538 0 0 0.05387,0.028 0.96747592,0.48373799 44.997537 0 0 0.02112,0.013 0.96747592,0.48373798 44.997538 0 0 0.05855,0.027 0.96747592,0.48373799 44.997537 0 0 0.06323,0.023 0.96747592,0.48373798 44.997538 0 0 0.02807,0.012 0.96747592,0.48373799 44.997537 0 0 0.02112,0 0.96747592,0.48373798 44.997538 0 0 0.04451,0.012 0.96747592,0.48373799 44.997537 0 0 0.01404,0 0.96747592,0.48373798 44.997538 0 0 0.06094,0.013 0.96747592,0.48373798 44.997538 0 0 0.06094,0 0.96747592,0.48373798 44.997538 0 0 0.05626,0 0.96747592,0.48373798 44.997538 0 0 0.0024,0 0.96747592,0.48373799 44.997537 0 0 0.0072,0 0.96747592,0.48373798 44.997538 0 0 0.04691,-0.013 0.96747592,0.48373798 44.997538 0 0 0.04691,-0.02 0.96747592,0.48373798 44.997538 0 0 0.0024,0 0.96747592,0.48373799 44.997537 0 0 0.0048,0 0.96747592,0.48373798 44.997538 0 0 0.03743,-0.024 0.96747592,0.48373799 44.997537 0 0 0.0258,-0.021 l 3.526474,-2.2446 a 12.093762,12.093137 0 0 0 0.489717,0.3397 12.093762,12.093137 0 0 0 0.0096,0.012 12.093762,12.093137 0 0 0 0.342107,0.2085 12.093762,12.093137 0 0 0 0.672481,0.3843 12.093762,12.093137 0 0 0 0.01644,0.012 12.093762,12.093137 0 0 0 0.377245,0.1827 12.093762,12.093137 0 0 0 0.728723,0.3257 12.093762,12.093137 0 0 0 0.356167,0.1289 12.093762,12.093137 0 0 0 0.759182,0.253 12.093762,12.093137 0 0 0 0.0096,0 12.093762,12.093137 0 0 0 0.468639,0.1199 12.093762,12.093137 0 0 0 0.672482,0.15 12.093762,12.093137 0 0 0 0.01644,0 12.093762,12.093137 0 0 0 0.55299,0.082 12.093762,12.093137 0 0 0 0.107733,0.017 l 0.56236,2.5306 a 0.96750083,0.48372551 0 0 0 0.0072,0.047 0.96750083,0.48372551 0 0 0 0.01404,0.049 0.96750083,0.48372551 0 0 0 0.02112,0.042 0.96750083,0.4837255 0 0 0 0.0024,0 0.96750083,0.48372551 0 0 0 0.02339,0.03 0.96750083,0.4837255 0 0 0 0.03048,0.037 0.96750083,0.48372551 0 0 0 0.012,0.012 0.96750083,0.4837255 0 0 0 0.03287,0.03 0.96750083,0.48372551 0 0 0 0.0258,0.019 0.96750083,0.4837255 0 0 0 0.0048,0 0.96750083,0.48372551 0 0 0 0.0469,0.03 0.96750083,0.4837255 0 0 0 0.0096,0.011 0.96750083,0.48372551 0 0 0 0.04451,0.024 0.96750083,0.4837255 0 0 0 0.06094,0.028 0.96750083,0.48372551 0 0 0 0.02807,0.013 0.96750083,0.4837255 0 0 0 0.0096,0 0.96750083,0.48372551 0 0 0 0.04919,0.02 0.96750083,0.4837255 0 0 0 0.02339,0.012 0.96750083,0.48372551 0 0 0 0.0703,0.021 0.96750083,0.4837255 0 0 0 0.04919,0.013 0.96750083,0.48372551 0 0 0 0.02807,0.011 0.96750083,0.4837255 0 0 0 0.0258,0 0.96750083,0.48372551 0 0 0 0.06323,0.012 0.96750083,0.4837255 0 0 0 0.07498,0.013 0.96750083,0.48372551 0 0 0 0.114812,0.012 0.96750083,0.4837255 0 0 0 0.0961,0 0.96750083,0.4837255 0 0 0 0.0703,0 0.96750083,0.4837255 0 0 0 0.07966,0 0.96750083,0.4837255 0 0 0 0.01644,0 0.96750083,0.48372551 0 0 0 0.0937,-0.012 0.96750083,0.4837255 0 0 0 0.08902,-0.014 0.96750083,0.4837255 0 0 0 0.0024,0 0.96750083,0.48372551 0 0 0 0.04919,-0.013 0.96750083,0.4837255 0 0 0 0.06323,-0.017 0.96750083,0.48372551 0 0 0 0.05855,-0.02 0.96750083,0.4837255 0 0 0 0.06562,-0.024 0.96750083,0.4837255 0 0 0 0.03516,-0.014 0.96750083,0.48372551 0 0 0 0.07259,-0.032 0.96750083,0.4837255 0 0 0 0.05387,-0.03 0.96750083,0.48372551 0 0 0 0.04691,-0.03 0.96750083,0.4837255 0 0 0 0.0048,0 0.96750083,0.48372551 0 0 0 0.02112,-0.017 0.96750083,0.48372551 0 0 0 0.03983,-0.035 0.96750083,0.48372551 0 0 0 0.03983,-0.044 0.96750083,0.48372551 0 0 0 0.03048,-0.044 0.96750083,0.4837255 0 0 0 0.01872,-0.042 0.96750083,0.48372551 0 0 0 0.0024,0 0.96750083,0.4837255 0 0 0 0.0096,-0.042 0.96750083,0.48372551 0 0 0 0.0024,-0.013 0.96750083,0.4837255 0 0 0 0.0024,-0.032 l 0.562359,-2.5282 a 12.093762,12.093137 0 0 0 0.107734,-0.017 12.093762,12.093137 0 0 0 0.611572,-0.096 12.093762,12.093137 0 0 0 0.529549,-0.1176 12.093762,12.093137 0 0 0 0.644371,-0.1664 12.093762,12.093137 0 0 0 0.529561,-0.1757 12.093762,12.093137 0 0 0 0.606879,-0.2203 12.093762,12.093137 0 0 0 0.50144,-0.2249 12.093762,12.093137 0 0 0 0.599851,-0.2904 12.093762,12.093137 0 0 0 0.461597,-0.2648 12.093762,12.093137 0 0 0 0.58345,-0.3586 12.093762,12.093137 0 0 0 0.403028,-0.2881 l 3.528801,2.2469 a 0.48373798,0.96747592 45.002462 0 0 0.0258,0.021 0.48373799,0.96747592 45.002463 0 0 0.03743,0.024 0.48373798,0.96747592 45.002462 0 0 0.0048,0 0.48373799,0.96747592 45.002463 0 0 0.03515,0.014 0.48373798,0.96747592 45.002462 0 0 0.01872,0.012 0.48373799,0.96747592 45.002463 0 0 0.0096,0 0.48373798,0.96747592 45.002462 0 0 0.03983,0.012 0.48373799,0.96747592 45.002463 0 0 0.0024,0 0.48373799,0.96747592 45.002463 0 0 0.05626,0 0.48373799,0.96747592 45.002463 0 0 0.05626,0 0.48373799,0.96747592 45.002463 0 0 0.0072,0 0.48373798,0.96747592 45.002462 0 0 0.01872,0 0.48373799,0.96747592 45.002463 0 0 0.03275,-0.012 0.48373798,0.96747592 45.002462 0 0 0.03743,-0.012 0.48373799,0.96747592 45.002463 0 0 0.06094,-0.02 0.48373798,0.96747592 45.002462 0 0 0.0096,0 0.48373799,0.96747592 45.002463 0 0 0.05158,-0.019 0.48373798,0.96747592 45.002462 0 0 0.02339,-0.012 0.48373799,0.96747592 45.002463 0 0 0.05158,-0.025 0.48373798,0.96747592 45.002462 0 0 0.02339,-0.012 0.48373799,0.96747592 45.002463 0 0 0.0072,0 0.48373798,0.96747592 45.002462 0 0 0.0679,-0.037 0.48373799,0.96747592 45.002463 0 0 0.05626,-0.032 0.48373798,0.96747592 45.002462 0 0 0.03515,-0.024 0.48373799,0.96747592 45.002463 0 0 0.03983,-0.028 0.48373798,0.96747592 45.002462 0 0 0.02339,-0.02 0.48373799,0.96747592 45.002463 0 0 0.05158,-0.04 0.48373798,0.96747592 45.002462 0 0 0.02112,-0.02 0.48373799,0.96747592 45.002463 0 0 0.05158,-0.044 0.48373798,0.96747592 45.002462 0 0 0.02112,-0.019 0.48373799,0.96747592 45.002463 0 0 0.04919,-0.047 0.48373799,0.96747592 45.002463 0 0 0.0469,-0.049 0.48373798,0.96747592 45.002462 0 0 0.01872,-0.021 0.48373799,0.96747592 45.002463 0 0 0.04451,-0.051 0.48373799,0.96747592 45.002463 0 0 0.110132,-0.1428 0.48373799,0.96747592 45.002463 0 0 0.0048,-0.013 0.48373798,0.96747592 45.002462 0 0 0.01404,-0.021 0.48373799,0.96747592 45.002463 0 0 0.03275,-0.057 0.48373799,0.96747592 45.002463 0 0 0.03743,-0.068 0.48373799,0.96747592 45.002463 0 0 0.0048,-0.011 0.48373798,0.96747592 45.002462 0 0 0.012,-0.024 0.48373799,0.96747592 45.002463 0 0 0.02339,-0.052 0.48373799,0.96747592 45.002463 0 0 0.0258,-0.066 0.48373799,0.96747592 45.002463 0 0 0.0048,-0.012 0.48373798,0.96747592 45.002462 0 0 0.0072,-0.021 0.48373799,0.96747592 45.002463 0 0 0.01404,-0.052 0.48373798,0.96747592 45.002462 0 0 0.0048,-0.02 0.48373799,0.96747592 45.002463 0 0 0.0096,-0.049 0.48373798,0.96747592 45.002462 0 0 0.0024,-0.029 0.48373799,0.96747592 45.002463 0 0 0.0048,-0.037 0.48373798,0.96747592 45.002462 0 0 -0.0024,-0.059 0.48373799,0.96747592 45.002463 0 0 -0.0048,-0.042 0.48373799,0.96747592 45.002463 0 0 -0.0024,-0.014 0.48373798,0.96747592 45.002462 0 0 -0.0048,-0.017 0.48373799,0.96747592 45.002463 0 0 -0.012,-0.032 0.48373798,0.96747592 45.002462 0 0 -0.0096,-0.02 0.48373798,0.96747592 45.002462 0 0 -0.02339,-0.037 0.48373798,0.96747592 45.002462 0 0 -0.02112,-0.025 l -2.24475,-3.5263 a 12.093762,12.093137 0 0 0 0.344436,-0.4944 12.093762,12.093137 0 0 0 0.220264,-0.3562 12.093762,12.093137 0 0 0 0.384277,-0.6678 12.093762,12.093137 0 0 0 0.203853,-0.424 12.093762,12.093137 0 0 0 0.304617,-0.6865 12.093762,12.093137 0 0 0 0.147621,-0.403 12.093762,12.093137 0 0 0 0.246025,-0.7428 12.093762,12.093137 0 0 0 0.103054,-0.4006 12.093762,12.093137 0 0 0 0.173392,-0.7708 12.093762,12.093137 0 0 0 0.06323,-0.4218 12.093762,12.093137 0 0 0 0.03275,-0.2179 l 2.528274,-0.5623 a 0.48375039,0.96745099 0 0 0 0.08434,-0.017 0.48375041,0.96745099 0 0 0 0.012,0 0.48375039,0.96745099 0 0 0 0.04691,-0.027 0.48375041,0.96745099 0 0 0 0.08902,-0.075 0.48375039,0.96745099 0 0 0 0.02807,-0.035 0.48375041,0.96745099 0 0 0 0.012,-0.014 0.48375039,0.96745099 0 0 0 0.0703,-0.1152 0.48375041,0.96745099 0 0 0 0.0048,-0.012 0.48375039,0.96745099 0 0 0 0.02339,-0.054 0.48375039,0.96745099 0 0 0 0.05387,-0.1617 0.48375041,0.96745099 0 0 0 0.0072,-0.021 0.48375039,0.96745099 0 0 0 0.01872,-0.084 0.48375039,0.96745099 0 0 0 0.012,-0.071 0.48375041,0.96745099 0 0 0 0.0048,-0.023 0.48375039,0.96745099 0 0 0 0.0096,-0.082 0.48375041,0.96745099 0 0 0 0,-0.012 0.48375039,0.96745099 0 0 0 0.0072,-0.164 0.48375041,0.96745099 0 0 0 -0.0024,-0.096 0.48375039,0.96745099 0 0 0 -0.0048,-0.079 0.48375041,0.96745099 0 0 0 -0.0024,-0.017 0.48375039,0.96745099 0 0 0 -0.0072,-0.066 0.48375041,0.96745099 0 0 0 -0.0048,-0.028 0.48375039,0.96745099 0 0 0 -0.012,-0.068 0.48375041,0.96745099 0 0 0 -0.0048,-0.023 0.48375039,0.96745099 0 0 0 -0.02112,-0.082 0.48375041,0.96745099 0 0 0 -0.05387,-0.1547 0.48375039,0.96745099 0 0 0 -0.02807,-0.061 0.48375041,0.96745099 0 0 0 -0.0048,-0.012 0.48375039,0.96745099 0 0 0 -0.03275,-0.056 0.48375041,0.96745099 0 0 0 -0.0048,-0.013 0.48375039,0.96745099 0 0 0 -0.02807,-0.04 0.48375041,0.96745099 0 0 0 -0.012,-0.017 0.48375039,0.96745099 0 0 0 -0.117211,-0.108 0.48375041,0.96745099 0 0 0 -0.01404,-0.012 0.48375039,0.96745099 0 0 0 -0.04451,-0.019 0.48375041,0.96745099 0 0 1 -0.0024,0 0.48375039,0.96745099 0 0 0 -0.03275,-0.012 0.48375041,0.96745099 0 0 0 -0.01404,0 0.48375039,0.96745099 0 0 0 -0.03516,0 l -2.530613,-0.5622 a 12.093762,12.093137 0 0 0 -2.078387,-5.3843 l 1.14112,-1.7949 a 0.96747592,0.48373799 44.997537 0 0 0.03048,-0.037 0.96747592,0.48373799 44.997537 0 0 0.02339,-0.044 0.96747592,0.48373799 44.997537 0 0 0.01644,-0.049 0.96747592,0.48373798 44.997538 0 0 0.0072,-0.044 0.96747592,0.48373799 44.997537 0 0 0.0024,-0.012 0.96747592,0.48373798 44.997538 0 0 0,-0.014 0.96747592,0.48373799 44.997537 0 0 0,-0.047 0.96747592,0.48373798 44.997538 0 0 -0.0024,-0.044 0.96747592,0.48373799 44.997537 0 0 -0.0024,-0.02 0.96747592,0.48373798 44.997538 0 0 -0.0096,-0.049 0.96747592,0.48373799 44.997537 0 0 -0.0024,0 0.96747592,0.48373798 44.997538 0 0 -0.01872,-0.066 0.96747592,0.48373799 44.997537 0 0 -0.0072,-0.021 0.96747592,0.48373798 44.997538 0 0 -0.01872,-0.054 0.96747592,0.48373799 44.997537 0 0 -0.0096,-0.021 0.96747592,0.48373799 44.997537 0 0 -0.03516,-0.073 0.96747592,0.48373798 44.997538 0 0 -0.03048,-0.054 0.96747592,0.48373798 44.997538 0 0 -0.04451,-0.073 0.96747592,0.48373798 44.997538 0 0 -0.0024,0 0.96747592,0.48373799 44.997537 0 0 -0.01404,-0.021 0.96747592,0.48373798 44.997538 0 0 -0.03743,-0.054 0.96747592,0.48373799 44.997537 0 0 -0.01644,-0.024 0.96747592,0.48373798 44.997538 0 0 -0.04223,-0.052 0.96747592,0.48373799 44.997537 0 0 -0.01644,-0.021 0.96747592,0.48373798 44.997538 0 0 -0.04451,-0.052 0.96747592,0.48373799 44.997537 0 0 -0.02112,-0.021 0.96747592,0.48373798 44.997538 0 0 -0.0469,-0.049 0.96747592,0.48373799 44.997537 0 0 -0.0703,-0.066 0.96747592,0.48373799 44.997537 0 0 -0.07259,-0.064 0.96747592,0.48373798 44.997538 0 0 -0.07498,-0.059 0.96747592,0.48373799 44.997537 0 0 -0.07498,-0.051 0.96747592,0.48373799 44.997537 0 0 -0.07738,-0.047 0.96747592,0.48373799 44.997537 0 0 -0.07498,-0.04 0.96747592,0.48373798 44.997538 0 0 -0.05387,-0.025 0.96747592,0.48373799 44.997537 0 0 -0.02112,-0.012 0.96747592,0.48373798 44.997538 0 0 -0.05158,-0.019 0.96747592,0.48373799 44.997537 0 0 -0.02112,-0.012 0.96747592,0.48373798 44.997538 0 0 -0.05158,-0.014 0.96747592,0.48373798 44.997538 0 0 -0.06791,-0.014 0.96747592,0.48373798 44.997538 0 0 -0.06562,-0.012 0.96747592,0.48373798 44.997538 0 0 -0.01872,0 0.96747592,0.48373798 44.997538 0 0 -0.02807,0 0.96747592,0.48373798 44.997538 0 0 -0.01404,0 0.96747592,0.48373799 44.997537 0 0 -0.01644,0 0.96747592,0.48373798 44.997538 0 0 -0.012,0 0.96747592,0.48373799 44.997537 0 0 -0.07738,0.021 0.96747592,0.48373798 44.997538 0 0 -0.04451,0.024 0.96747592,0.48373798 44.997538 0 0 -0.03743,0.03 l -1.649588,1.0472 a 12.093762,12.093137 0 0 0 -6.497595,-2.9546 l -0.56236,-2.5282 a 0.96750083,0.48372551 0 0 0 -0.967727,-0.4825 z"
       id="path5349-5-0-4-3-7"
       inkscape:connector-curvature="0"
       inkscape:export-xdpi="90"
       inkscape:export-ydpi="90" />
  </g>
</svg>
