<?xml version="1.0" encoding="UTF-8" standalone="no"?>
<!-- Created with Inkscape (http://www.inkscape.org/) -->

<svg
   xmlns:dc="http://purl.org/dc/elements/1.1/"
   xmlns:cc="http://creativecommons.org/ns#"
   xmlns:rdf="http://www.w3.org/1999/02/22-rdf-syntax-ns#"
   xmlns:svg="http://www.w3.org/2000/svg"
   xmlns="http://www.w3.org/2000/svg"
   xmlns:sodipodi="http://sodipodi.sourceforge.net/DTD/sodipodi-0.dtd"
   xmlns:inkscape="http://www.inkscape.org/namespaces/inkscape"
   width="50"
   height="50"
   viewBox="0 0 50.000001 50.000001"
   id="svg5113"
   version="1.1"
   inkscape:version="0.91 r13725"
   sodipodi:docname="btn_marquee.svg">
  <defs
     id="defs5115" />
  <sodipodi:namedview
     id="base"
     pagecolor="#ffffff"
     bordercolor="#666666"
     borderopacity="1.0"
     inkscape:pageopacity="0.0"
     inkscape:pageshadow="2"
     inkscape:zoom="5.6"
     inkscape:cx="33.002706"
     inkscape:cy="17.399003"
     inkscape:document-units="px"
     inkscape:current-layer="layer1"
     showgrid="false"
     units="px"
     inkscape:window-width="1920"
     inkscape:window-height="1017"
     inkscape:window-x="-8"
     inkscape:window-y="-8"
     inkscape:window-maximized="1" />
  <metadata
     id="metadata5118">
    <rdf:RDF>
      <cc:Work
         rdf:about="">
        <dc:format>image/svg+xml</dc:format>
        <dc:type
           rdf:resource="http://purl.org/dc/dcmitype/StillImage" />
        <dc:title></dc:title>
      </cc:Work>
    </rdf:RDF>
  </metadata>
  <g
     inkscape:label="Layer 1"
     inkscape:groupmode="layer"
     id="layer1"
     transform="translate(0,-1002.3622)">
    <path
       inkscape:connector-curvature="0"
       style="opacity:1;fill:#000000;fill-opacity:1;stroke:none;stroke-width:2;stroke-linecap:square;stroke-linejoin:round;stroke-miterlimit:4;stroke-dasharray:2, 4;stroke-dashoffset:0;stroke-opacity:1"
       d="m 10,1012.3622 0,2 0,4 2,0 0,-4 4,0 0,-2 -4,0 -2,0 z m 8,0 0,2 6,0 0,-2 -6,0 z m 8,0 0,2 6,0 0,-2 -6,0 z m 8,0 0,2 4,0 0,4 2,0 0,-6 -6,0 z m -24,8 0,6 2,0 0,-6 -2,0 z m 28,0 0,6 2,0 0,-6 -2,0 z m -28,8 0,6 2,0 0,-6 -2,0 z m 28,0 0,6 2,0 0,-6 -2,0 z m -28,8 0,4 0,2 6,0 0,-2 -4,0 0,-4 -2,0 z m 28,0 0,4 -4,0 0,2 6,0 0,-2 0,-4 -2,0 z m -20,4 0,2 6,0 0,-2 -6,0 z m 8,0 0,2 6,0 0,-2 -6,0 z"
       id="rect4804" />
  </g>
</svg>
