<?xml version="1.0" encoding="UTF-8" standalone="no"?>
<!-- Created with Inkscape (http://www.inkscape.org/) -->

<svg
   xmlns:dc="http://purl.org/dc/elements/1.1/"
   xmlns:cc="http://creativecommons.org/ns#"
   xmlns:rdf="http://www.w3.org/1999/02/22-rdf-syntax-ns#"
   xmlns:svg="http://www.w3.org/2000/svg"
   xmlns="http://www.w3.org/2000/svg"
   xmlns:sodipodi="http://sodipodi.sourceforge.net/DTD/sodipodi-0.dtd"
   xmlns:inkscape="http://www.inkscape.org/namespaces/inkscape"
   width="100"
   height="10"
   viewBox="0 0 100 10"
   id="svg8708"
   version="1.1"
   inkscape:version="0.91 r13725"
   sodipodi:docname="indicator_go.svg">
  <defs
     id="defs8710" />
  <sodipodi:namedview
     id="base"
     pagecolor="#ffffff"
     bordercolor="#666666"
     borderopacity="1.0"
     inkscape:pageopacity="0.0"
     inkscape:pageshadow="2"
     inkscape:zoom="5.6"
     inkscape:cx="48.50545"
     inkscape:cy="-7.7418701"
     inkscape:document-units="px"
     inkscape:current-layer="layer1"
     showgrid="false"
     units="px"
     inkscape:window-width="1920"
     inkscape:window-height="1017"
     inkscape:window-x="-8"
     inkscape:window-y="-8"
     inkscape:window-maximized="1" />
  <metadata
     id="metadata8713">
    <rdf:RDF>
      <cc:Work
         rdf:about="">
        <dc:format>image/svg+xml</dc:format>
        <dc:type
           rdf:resource="http://purl.org/dc/dcmitype/StillImage" />
        <dc:title></dc:title>
      </cc:Work>
    </rdf:RDF>
  </metadata>
  <g
     inkscape:label="Layer 1"
     inkscape:groupmode="layer"
     id="layer1"
     transform="translate(0,-1042.3622)">
    <g
       transform="translate(137.33769,74.57065)"
       style="font-style:normal;font-weight:normal;font-size:40px;line-height:125%;font-family:sans-serif;letter-spacing:0px;word-spacing:0px;fill:#ffffff;fill-opacity:1;stroke:#ffffff;stroke-width:0.5;stroke-linecap:butt;stroke-linejoin:miter;stroke-miterlimit:4;stroke-dasharray:none;stroke-opacity:1"
       id="text9284-6">
      <path
         inkscape:connector-curvature="0"
         d="m -89.651254,974.95155 q -1.86,0.39 -3.58,0.39 -1.72,0 -3.48,-0.39 l 0.92,-4.32 q 1.87,-0.39 3.59,-0.39 1.72,0 3.47,0.39 l -0.21,0.98 q -1.85,-0.43 -3.5,-0.43 -1.14,0 -2.53,0.23 l -0.59,2.75 q 1.34,0.24 2.57,0.24 1.14,0 2.53,-0.23 l 0.2,-0.92 -2.62,0 0.2,-0.98 3.61,0.01 -0.58,2.67 z"
         style="font-style:normal;font-variant:normal;font-weight:normal;font-stretch:normal;font-size:10px;font-family:Homoarakhn;-inkscape-font-specification:Homoarakhn;fill:#ffffff;stroke:#ffffff;stroke-width:0.5;stroke-miterlimit:4;stroke-dasharray:none;stroke-opacity:1"
         id="path9607" />
      <path
         inkscape:connector-curvature="0"
         d="m -79.694066,974.17155 0.58,-2.75 q -1.33,-0.24 -2.56,-0.24 -1.14,0 -2.53,0.23 l -0.59,2.75 q 1.34,0.24 2.57,0.24 1.14,0 2.53,-0.23 z m 0.81,0.78 q -1.86,0.39 -3.58,0.39 -1.72,0 -3.48,-0.39 l 0.92,-4.32 q 1.87,-0.39 3.59,-0.39 1.72,0 3.47,0.39 l -0.92,4.32 z"
         style="font-style:normal;font-variant:normal;font-weight:normal;font-stretch:normal;font-size:10px;font-family:Homoarakhn;-inkscape-font-specification:Homoarakhn;fill:#ffffff;stroke:#ffffff;stroke-width:0.5;stroke-miterlimit:4;stroke-dasharray:none;stroke-opacity:1"
         id="path9609" />
    </g>
  </g>
</svg>
