<?xml version="1.0" encoding="UTF-8" standalone="no"?>
<!-- Created with Inkscape (http://www.inkscape.org/) -->

<svg
   xmlns:dc="http://purl.org/dc/elements/1.1/"
   xmlns:cc="http://creativecommons.org/ns#"
   xmlns:rdf="http://www.w3.org/1999/02/22-rdf-syntax-ns#"
   xmlns:svg="http://www.w3.org/2000/svg"
   xmlns="http://www.w3.org/2000/svg"
   xmlns:sodipodi="http://sodipodi.sourceforge.net/DTD/sodipodi-0.dtd"
   xmlns:inkscape="http://www.inkscape.org/namespaces/inkscape"
   width="100"
   height="10"
   viewBox="0 0 100 10"
   id="svg8708"
   version="1.1"
   inkscape:version="0.91 r13725"
   sodipodi:docname="indicator_getReady.svg">
  <defs
     id="defs8710" />
  <sodipodi:namedview
     id="base"
     pagecolor="#ffffff"
     bordercolor="#666666"
     borderopacity="1.0"
     inkscape:pageopacity="0.0"
     inkscape:pageshadow="2"
     inkscape:zoom="5.6"
     inkscape:cx="48.50545"
     inkscape:cy="-7.7418701"
     inkscape:document-units="px"
     inkscape:current-layer="layer1"
     showgrid="false"
     units="px"
     inkscape:window-width="1920"
     inkscape:window-height="1017"
     inkscape:window-x="-8"
     inkscape:window-y="-8"
     inkscape:window-maximized="1" />
  <metadata
     id="metadata8713">
    <rdf:RDF>
      <cc:Work
         rdf:about="">
        <dc:format>image/svg+xml</dc:format>
        <dc:type
           rdf:resource="http://purl.org/dc/dcmitype/StillImage" />
        <dc:title></dc:title>
      </cc:Work>
    </rdf:RDF>
  </metadata>
  <g
     inkscape:label="Layer 1"
     inkscape:groupmode="layer"
     id="layer1"
     transform="translate(0,-1042.3622)">
    <g
       style="font-style:normal;font-weight:normal;font-size:40px;line-height:125%;font-family:sans-serif;letter-spacing:0px;word-spacing:0px;fill:#ffffff;fill-opacity:1;stroke:#ffffff;stroke-width:0.5;stroke-linecap:butt;stroke-linejoin:miter;stroke-miterlimit:4;stroke-dasharray:none;stroke-opacity:1"
       id="text9284-16-9"
       transform="translate(136.33116,85.35061)">
      <path
         d="m -119.52352,964.18159 c -1.24,0.26 -2.43333,0.39 -3.58,0.39 -1.14667,0 -2.30667,-0.13 -3.48,-0.39 l 0.92,-4.32 c 1.24667,-0.26 2.44333,-0.39 3.59,-0.39 1.14667,0 2.30333,0.13 3.47,0.39 l -0.21,0.98 c -1.23333,-0.28667 -2.4,-0.43 -3.5,-0.43 -0.76,0 -1.60333,0.0767 -2.53,0.23 l -0.59,2.75 c 0.89333,0.16 1.75,0.24 2.57,0.24 0.76,0 1.60333,-0.0767 2.53,-0.23 l 0.2,-0.92 -2.62,0 0.2,-0.98 3.61,0.01 z"
         style="font-style:normal;font-variant:normal;font-weight:normal;font-stretch:normal;font-size:10px;font-family:Homoarakhn;-inkscape-font-specification:Homoarakhn;fill:#ffffff;stroke:#ffffff;stroke-width:0.5;stroke-miterlimit:4;stroke-dasharray:none;stroke-opacity:1"
         id="path9518"
         inkscape:connector-curvature="0"
         sodipodi:nodetypes="csccsccsccscccccc" />
      <path
         d="m -115.83633,960.23159 0.01,0 0.13,-0.59 q 1.54,-0.17 3.82,-0.17 2.18,0 3.6,0.18 l -0.21,0.99 q -1.93,-0.26 -3.92,-0.26 -1.36,0 -2.51,0.13 l -0.21,0.99 4.85,0 -0.2,0.98 -4.85,0 -0.22,1 q 1.13,0.13 2.48,0.13 1.99,0 3.96,-0.26 l -0.21,0.99 q -1.5,0.23 -3.65,0.23 -2.25,0 -3.73,-0.23 l 0.15,-0.69 -0.01,0 0.72,-3.42 z"
         style="font-style:normal;font-variant:normal;font-weight:normal;font-stretch:normal;font-size:10px;font-family:Homoarakhn;-inkscape-font-specification:Homoarakhn;fill:#ffffff;stroke:#ffffff;stroke-width:0.5;stroke-miterlimit:4;stroke-dasharray:none;stroke-opacity:1"
         id="path9520"
         inkscape:connector-curvature="0" />
      <path
         d="m -106.92508,959.84159 q 1.86,-0.39 3.58,-0.39 1.72,0 3.479995,0.39 l -0.209995,0.98 q -1.55,-0.36 -2.95,-0.42 l -0.89,4.17 -0.98,0 0.89,-4.18 q -1.35,0.05 -3.13,0.43 l 0.21,-0.98 z"
         style="font-style:normal;font-variant:normal;font-weight:normal;font-stretch:normal;font-size:10px;font-family:Homoarakhn;-inkscape-font-specification:Homoarakhn;fill:#ffffff;stroke:#ffffff;stroke-width:0.5;stroke-miterlimit:4;stroke-dasharray:none;stroke-opacity:1"
         id="path9522"
         inkscape:connector-curvature="0" />
      <path
         d="m -88.54571,961.54159 0,0 z m 1.26,0.64 q 0.67,0.13 1,0.41 l -0.42,1.98 -0.98,0 0.33,-1.53 q -1.11,-0.52 -2.66,-0.54 l -2.31,-0.03 -0.45,2.1 -0.98,0 0.8,-3.77 -0.67,0.11 0.19,-0.89 0.68,-0.16 q 1.66,-0.39 3.59,-0.39 1.72,0 3.47,0.39 l -0.21,0.98 -0.01,0 -0.24,1.13 -1.13,0.21 z m -4.83,-0.69 2.78,0.01 q 0.86,0 2.34,-0.19 l 0.14,-0.66 q -1.33,-0.24 -2.55,-0.24 -1.14,0 -2.53,0.23 l -0.18,0.85 z"
         style="font-style:normal;font-variant:normal;font-weight:normal;font-stretch:normal;font-size:10px;font-family:Homoarakhn;-inkscape-font-specification:Homoarakhn;fill:#ffffff;stroke:#ffffff;stroke-width:0.5;stroke-miterlimit:4;stroke-dasharray:none;stroke-opacity:1"
         id="path9524"
         inkscape:connector-curvature="0" />
      <path
         d="m -82.672272,960.23159 0.01,0 0.13,-0.59 q 1.54,-0.17 3.82,-0.17 2.18,0 3.6,0.18 l -0.21,0.99 q -1.93,-0.26 -3.92,-0.26 -1.36,0 -2.51,0.13 l -0.21,0.99 4.85,0 -0.2,0.98 -4.85,0 -0.22,1 q 1.13,0.13 2.48,0.13 1.99,0 3.96,-0.26 l -0.21,0.99 q -1.5,0.23 -3.65,0.23 -2.25,0 -3.73,-0.23 l 0.15,-0.69 -0.01,0 0.72,-3.42 z"
         style="font-style:normal;font-variant:normal;font-weight:normal;font-stretch:normal;font-size:10px;font-family:Homoarakhn;-inkscape-font-specification:Homoarakhn;fill:#ffffff;stroke:#ffffff;stroke-width:0.5;stroke-miterlimit:4;stroke-dasharray:none;stroke-opacity:1"
         id="path9526"
         inkscape:connector-curvature="0" />
      <path
         d="m -71.411022,960.64159 -0.19,0.86 5.1,0 0.18,-0.85 q -1.33,-0.24 -2.56,-0.24 -1.13,0 -2.53,0.23 z m 5.24,3.93 -0.98,0 0.44,-2.07 -5.1,0 -0.44,2.07 -0.98,0 1,-4.71 q 1.87,-0.39 3.59,-0.39 1.72,0 3.47,0.39 l -1,4.71 z"
         style="font-style:normal;font-variant:normal;font-weight:normal;font-stretch:normal;font-size:10px;font-family:Homoarakhn;-inkscape-font-specification:Homoarakhn;fill:#ffffff;stroke:#ffffff;stroke-width:0.5;stroke-miterlimit:4;stroke-dasharray:none;stroke-opacity:1"
         id="path9528"
         inkscape:connector-curvature="0" />
      <path
         d="m -56.17571,963.40159 0.58,-2.75 q -1.33,-0.24 -2.56,-0.24 0.11,0 -1.61,-0.04 l -0.86,-0.02 -0.7,3.27 2.62,0.01 q 1.14,0 2.53,-0.23 z m 0.81,0.78 q -1.86,0.39 -3.58,0.39 l -3.56,0 -0.59,-0.05 0.19,-0.87 0.6,-0.03 0.7,-3.26 -0.65,-0.02 0.18,-0.85 0.66,-0.02 3.5,0 q 1.72,0 3.47,0.39 l -0.92,4.32 z"
         style="font-style:normal;font-variant:normal;font-weight:normal;font-stretch:normal;font-size:10px;font-family:Homoarakhn;-inkscape-font-specification:Homoarakhn;fill:#ffffff;stroke:#ffffff;stroke-width:0.5;stroke-miterlimit:4;stroke-dasharray:none;stroke-opacity:1"
         id="path9530"
         inkscape:connector-curvature="0" />
      <path
         d="m -50.221804,960.56159 0.98,0 -0.19,0.93 q 0.91,-0.05 1.98,-0.23 l 0.38,-1.79 0.98,0 -0.55,2.57 q -1.55,0.32 -2.99,0.38 l -0.46,2.15 -0.98,0 0.46,-2.14 q -1.54,-0.04 -3.09,-0.39 l 0.55,-2.57 0.98,0 -0.38,1.79 q 1.1,0.2 2.14,0.23 l 0.19,-0.93 z"
         style="font-style:normal;font-variant:normal;font-weight:normal;font-stretch:normal;font-size:10px;font-family:Homoarakhn;-inkscape-font-specification:Homoarakhn;fill:#ffffff;stroke:#ffffff;stroke-width:0.5;stroke-miterlimit:4;stroke-dasharray:none;stroke-opacity:1"
         id="path9532"
         inkscape:connector-curvature="0" />
    </g>
  </g>
</svg>
