<?xml version="1.0" encoding="UTF-8" standalone="no"?>
<!-- Created with Inkscape (http://www.inkscape.org/) -->

<svg
   xmlns:dc="http://purl.org/dc/elements/1.1/"
   xmlns:cc="http://creativecommons.org/ns#"
   xmlns:rdf="http://www.w3.org/1999/02/22-rdf-syntax-ns#"
   xmlns:svg="http://www.w3.org/2000/svg"
   xmlns="http://www.w3.org/2000/svg"
   xmlns:sodipodi="http://sodipodi.sourceforge.net/DTD/sodipodi-0.dtd"
   xmlns:inkscape="http://www.inkscape.org/namespaces/inkscape"
   width="10"
   height="10"
   viewBox="0 0 10 10"
   id="svg4565"
   version="1.1"
   inkscape:version="0.91 r13725"
   sodipodi:docname="num_8.svg">
  <defs
     id="defs4567" />
  <sodipodi:namedview
     id="base"
     pagecolor="#ffffff"
     bordercolor="#666666"
     borderopacity="1.0"
     inkscape:pageopacity="0.0"
     inkscape:pageshadow="2"
     inkscape:zoom="3.959798"
     inkscape:cx="-35.625769"
     inkscape:cy="-19.001108"
     inkscape:document-units="px"
     inkscape:current-layer="layer1"
     showgrid="false"
     units="px"
     inkscape:window-width="1920"
     inkscape:window-height="1017"
     inkscape:window-x="-8"
     inkscape:window-y="-8"
     inkscape:window-maximized="1" />
  <metadata
     id="metadata4570">
    <rdf:RDF>
      <cc:Work
         rdf:about="">
        <dc:format>image/svg+xml</dc:format>
        <dc:type
           rdf:resource="http://purl.org/dc/dcmitype/StillImage" />
        <dc:title />
      </cc:Work>
    </rdf:RDF>
  </metadata>
  <g
     inkscape:label="Layer 1"
     inkscape:groupmode="layer"
     id="layer1"
     transform="translate(0,-1042.3622)">
    <g
       style="font-style:normal;font-variant:normal;font-weight:normal;font-stretch:normal;font-size:10px;line-height:125%;font-family:Homoarakhn;-inkscape-font-specification:Homoarakhn;letter-spacing:0px;word-spacing:0px;fill:#ffffff;fill-opacity:1;stroke:none;stroke-width:1px;stroke-linecap:butt;stroke-linejoin:miter;stroke-opacity:1"
       id="text4387">
      <path
         d="m 2.06,1048.3422 -0.1,0.48 q 1.13,0.13 2.5,0.13 1.48,0 2.96,-0.14 l 0.11,-0.55 q -1.36,-0.36 -2.71,-0.44 l -0.01,0.02 -0.01,0 q -1.06,0 -2.74,0.5 z m -0.74,-1.16 0.47,-2.2 q 1.54,-0.17 3.82,-0.17 2.18,0 3.6,0.18 l -0.46,2.19 -1.1,0.18 1.01,0.2 -0.45,2.12 q -1.5,0.23 -3.65,0.23 -2.25,0 -3.73,-0.23 l -0.04,0 0.43,-2.01 0.04,0.01 0,-0.02 1.21,-0.26 -1.15,-0.22 z m 1.27,-1.33 -0.11,0.5 q 1.16,0.38 2.54,0.49 1.53,-0.07 2.89,-0.37 l 0.13,-0.59 q -1.53,-0.16 -2.96,-0.16 -1.35,0 -2.49,0.13 z"
         style=""
         id="path5844" />
    </g>
  </g>
</svg>
