<?xml version="1.0" encoding="UTF-8" standalone="no"?>
<!-- Created with Inkscape (http://www.inkscape.org/) -->

<svg
   xmlns:dc="http://purl.org/dc/elements/1.1/"
   xmlns:cc="http://creativecommons.org/ns#"
   xmlns:rdf="http://www.w3.org/1999/02/22-rdf-syntax-ns#"
   xmlns:svg="http://www.w3.org/2000/svg"
   xmlns="http://www.w3.org/2000/svg"
   xmlns:sodipodi="http://sodipodi.sourceforge.net/DTD/sodipodi-0.dtd"
   xmlns:inkscape="http://www.inkscape.org/namespaces/inkscape"
   width="10"
   height="10"
   viewBox="0 0 10 10"
   id="svg6749"
   version="1.1"
   inkscape:version="0.91 r13725"
   sodipodi:docname="spring.svg">
  <defs
     id="defs6751" />
  <sodipodi:namedview
     id="base"
     pagecolor="#ffffff"
     bordercolor="#666666"
     borderopacity="1.0"
     inkscape:pageopacity="0.0"
     inkscape:pageshadow="2"
     inkscape:zoom="22.4"
     inkscape:cx="-0.5344098"
     inkscape:cy="6.6410083"
     inkscape:document-units="px"
     inkscape:current-layer="layer1"
     showgrid="false"
     units="px"
     inkscape:window-width="1920"
     inkscape:window-height="1017"
     inkscape:window-x="-8"
     inkscape:window-y="-8"
     inkscape:window-maximized="1" />
  <metadata
     id="metadata6754">
    <rdf:RDF>
      <cc:Work
         rdf:about="">
        <dc:format>image/svg+xml</dc:format>
        <dc:type
           rdf:resource="http://purl.org/dc/dcmitype/StillImage" />
        <dc:title></dc:title>
      </cc:Work>
    </rdf:RDF>
  </metadata>
  <g
     inkscape:label="Layer 1"
     inkscape:groupmode="layer"
     id="layer1"
     transform="translate(0,-1042.3622)">
    <path
       inkscape:connector-curvature="0"
       style="opacity:1;fill:#ffffff;fill-opacity:1;stroke:none;stroke-width:3;stroke-linecap:round;stroke-linejoin:round;stroke-miterlimit:4;stroke-dasharray:none;stroke-dashoffset:0;stroke-opacity:1"
       d="m 0.83324998,1042.362 c -0.46164,0 -0.83327998,0.3519 -0.83327998,0.7891 0,0.3272 0.20857998,0.6062 0.50713998,0.7261 0.0813,0.074 0.17918,0.1343 0.29229,0.1733 l 3.39108002,1.1687 -3.10528,0 c -0.008,0 -0.0146,0 -0.0221,0 -0.0277,0 -0.0547,0 -0.082,0.01 -0.0277,0 -0.0553,0.01 -0.082,0.012 -0.022,0 -0.043,0.012 -0.0644,0.019 -0.0316,0.01 -0.0632,0.019 -0.0931,0.032 -0.0153,0.01 -0.0294,0.015 -0.0443,0.023 -0.0315,0.016 -0.0629,0.031 -0.0918,0.051 -0.015,0.01 -0.028,0.022 -0.0423,0.033 -0.0286,0.022 -0.0574,0.044 -0.0827,0.069 -0.009,0.01 -0.0153,0.019 -0.0234,0.028 -0.027,0.03 -0.0527,0.06 -0.0749,0.093 -0.008,0.012 -0.0135,0.025 -0.0208,0.038 -0.0192,0.033 -0.0378,0.065 -0.0521,0.1006 -0.002,0 -0.005,0.01 -0.007,0.014 -0.005,0.013 -0.006,0.027 -0.0104,0.04 -0.0102,0.032 -0.0201,0.064 -0.026,0.097 -0.004,0.024 -0.006,0.048 -0.008,0.072 -0.002,0.02 -0.006,0.04 -0.006,0.061 0,0.01 0.002,0.014 0.003,0.021 6.7e-4,0.027 0.005,0.054 0.008,0.081 0.003,0.024 0.005,0.049 0.0111,0.073 0.007,0.027 0.0171,0.054 0.0267,0.08 0.008,0.021 0.0139,0.043 0.0234,0.064 0.0108,0.023 0.0247,0.045 0.0378,0.067 0.014,0.024 0.0272,0.048 0.0436,0.07 0.0118,0.016 0.026,0.03 0.0391,0.045 0.0206,0.024 0.0411,0.047 0.0644,0.069 0.017,0.015 0.0362,0.028 0.0547,0.043 0.0232,0.018 0.0458,0.036 0.071,0.051 0.0196,0.012 0.0409,0.021 0.0618,0.032 0.0281,0.014 0.056,0.028 0.0859,0.039 0.006,0 0.0117,0.01 0.0182,0.01 l 3.39108,1.1687 -3.10463,0 c -0.006,0 -0.0125,0 -0.0189,0 -0.0333,0 -0.0657,0 -0.0983,0.01 -0.0227,0 -0.0456,0 -0.0677,0.01 -0.027,0.01 -0.0526,0.015 -0.0788,0.023 -0.026,0.01 -0.0521,0.015 -0.0768,0.026 -0.0242,0.01 -0.0466,0.023 -0.0697,0.036 -0.0225,0.012 -0.0459,0.023 -0.067,0.037 -0.0254,0.017 -0.0482,0.037 -0.0716,0.056 -0.0163,0.014 -0.0337,0.026 -0.0488,0.041 -0.0206,0.02 -0.0382,0.043 -0.0566,0.065 -0.0153,0.019 -0.0314,0.036 -0.0449,0.056 -0.0147,0.021 -0.0264,0.045 -0.039,0.068 -0.0125,0.023 -0.0257,0.045 -0.0358,0.07 -0.003,0.01 -0.008,0.014 -0.0104,0.021 -0.008,0.022 -0.0113,0.044 -0.0176,0.067 -0.005,0.02 -0.0117,0.038 -0.0156,0.059 -0.008,0.04 -0.0116,0.079 -0.013,0.1191 -2.9e-4,0.01 -0.003,0.017 -0.003,0.025 0,0 6.7e-4,0.01 6.7e-4,0.01 3.3e-4,0.045 0.006,0.09 0.0143,0.1338 0.001,0.01 0.002,0.014 0.003,0.021 0.009,0.042 0.0235,0.082 0.0397,0.1214 0.004,0.01 0.006,0.019 0.0104,0.028 0.017,0.037 0.0384,0.072 0.0612,0.1066 0.006,0.01 0.0103,0.018 0.0163,0.026 0.0224,0.031 0.0485,0.059 0.0755,0.087 0.01,0.01 0.0183,0.021 0.0286,0.031 0.0247,0.023 0.0521,0.043 0.0801,0.063 0.0159,0.011 0.0308,0.024 0.0475,0.034 0.0254,0.016 0.0531,0.028 0.0807,0.041 0.0222,0.011 0.0437,0.022 0.067,0.031 0.008,0 0.0138,0.01 0.0215,0.01 l 3.84808998,1.326 -3.81423998,0 c -0.46164,0 -0.83327998,0.352 -0.83327998,0.7889 0,0.4372 0.37163998,0.7891 0.83327998,0.7891 l 8.33287998,0 c 0.46164,0 0.83328,-0.3519 0.83328,-0.7891 0,-0.3272 -0.20858,-0.6062 -0.50714,-0.7261 -0.0813,-0.074 -0.17918,-0.1342 -0.29229,-0.1733 l -3.39108,-1.1687 3.10528,0 c 0.008,0 0.015,0 0.0228,0 0.0296,0 0.0582,0 0.0872,-0.01 0.0252,0 0.0504,-0.01 0.0749,-0.01 0.0265,-0.01 0.0518,-0.015 0.0775,-0.023 0.0261,-0.01 0.0526,-0.015 0.0775,-0.026 0.025,-0.01 0.0478,-0.024 0.0716,-0.037 0.0219,-0.012 0.0445,-0.022 0.0651,-0.036 0.0219,-0.015 0.0415,-0.032 0.0618,-0.048 0.0213,-0.017 0.0431,-0.034 0.0625,-0.053 0.0163,-0.016 0.03,-0.034 0.0449,-0.052 0.0187,-0.022 0.0378,-0.043 0.054,-0.067 0.0139,-0.021 0.0251,-0.043 0.0371,-0.065 0.013,-0.024 0.026,-0.047 0.0365,-0.072 0.003,-0.01 0.008,-0.013 0.0104,-0.02 0.008,-0.02 0.0103,-0.041 0.0163,-0.062 0.006,-0.022 0.0139,-0.044 0.0182,-0.067 0.007,-0.037 0.0101,-0.073 0.0117,-0.1096 3.3e-4,-0.01 0.003,-0.02 0.003,-0.031 0,0 -10e-4,-0.01 -10e-4,-0.01 -3.4e-4,-0.042 -0.006,-0.083 -0.013,-0.1246 -0.002,-0.011 -0.003,-0.022 -0.005,-0.033 -0.009,-0.041 -0.0232,-0.08 -0.0391,-0.1184 -0.004,-0.01 -0.006,-0.018 -0.01,-0.027 -0.0162,-0.036 -0.0363,-0.069 -0.0579,-0.1022 -0.007,-0.011 -0.0132,-0.022 -0.0208,-0.033 -0.0215,-0.03 -0.0465,-0.057 -0.0723,-0.083 -0.0104,-0.011 -0.0196,-0.022 -0.0306,-0.033 -0.0251,-0.023 -0.0536,-0.043 -0.082,-0.064 -0.0155,-0.011 -0.0299,-0.023 -0.0462,-0.033 -0.0243,-0.015 -0.0505,-0.027 -0.0768,-0.04 -0.0236,-0.011 -0.0467,-0.023 -0.0716,-0.033 -0.007,0 -0.0135,-0.01 -0.0208,-0.01 l -3.39108,-1.1687 3.10333,0 c 0.006,0 0.0125,0 0.0189,0 0.0332,0 0.0657,0 0.0983,-0.01 0.0227,0 0.0456,0 0.0677,-0.01 0.027,-0.01 0.0526,-0.015 0.0788,-0.023 0.026,-0.01 0.0521,-0.015 0.0768,-0.026 0.0242,-0.01 0.0466,-0.023 0.0697,-0.036 0.0225,-0.012 0.0459,-0.023 0.067,-0.037 0.0254,-0.017 0.0482,-0.037 0.0716,-0.056 0.0163,-0.014 0.0337,-0.026 0.0488,-0.041 0.0206,-0.02 0.0382,-0.043 0.0566,-0.065 0.0153,-0.019 0.0314,-0.036 0.0449,-0.056 0.0147,-0.021 0.0264,-0.045 0.0391,-0.068 0.0125,-0.023 0.0257,-0.046 0.0358,-0.07 0.003,-0.01 0.008,-0.014 0.0104,-0.021 0.008,-0.022 0.0113,-0.044 0.0176,-0.067 0.005,-0.02 0.0117,-0.039 0.0156,-0.059 0.008,-0.04 0.0116,-0.079 0.013,-0.119 2.9e-4,-0.01 0.003,-0.017 0.003,-0.025 0,0 -6.7e-4,-0.01 -6.7e-4,-0.01 -3.3e-4,-0.045 -0.006,-0.09 -0.0143,-0.1338 -10e-4,-0.01 -0.002,-0.014 -0.003,-0.021 -0.009,-0.042 -0.0235,-0.082 -0.0397,-0.1215 -0.004,-0.01 -0.006,-0.019 -0.0104,-0.028 -0.0163,-0.036 -0.037,-0.069 -0.0586,-0.1017 -0.007,-0.01 -0.0122,-0.022 -0.0195,-0.032 -0.0212,-0.029 -0.0463,-0.056 -0.0716,-0.082 -0.0111,-0.012 -0.0208,-0.024 -0.0326,-0.035 -0.0245,-0.023 -0.0518,-0.043 -0.0794,-0.062 -0.0159,-0.011 -0.0308,-0.024 -0.0475,-0.034 -0.0241,-0.015 -0.0501,-0.027 -0.0762,-0.039 -0.0246,-0.012 -0.0489,-0.024 -0.0748,-0.033 -0.006,0 -0.0117,-0.01 -0.0182,-0.01 l -3.84939,-1.3265 3.81554,0 c 0.46164,0 0.83329,-0.3521 0.83329,-0.789 0,-0.4372 -0.37165,-0.7891 -0.83329,-0.7891 l -8.33286998,0 z"
       id="rect6438-0-9-7" />
  </g>
</svg>
